<svg xmlns="http://www.w3.org/2000/svg" viewBox="0 0 750 500"><g id="freepik--background-complete--inject-44"><path d="M68.52,472.16a8.68,8.68,0,0,1-3,.26,8.72,8.72,0,0,1-3-.26,9,9,0,0,1,3-.26A9,9,0,0,1,68.52,472.16Z" style="fill:#e0e0e0"></path><path d="M92.84,472.16a35,35,0,0,1-6.08.26,35,35,0,0,1-6.08-.26,36.2,36.2,0,0,1,6.08-.26A36.2,36.2,0,0,1,92.84,472.16Z" style="fill:#e0e0e0"></path><path d="M117.15,472.16a35,35,0,0,1-6.08.26,35,35,0,0,1-6.08-.26,36.2,36.2,0,0,1,6.08-.26A36.2,36.2,0,0,1,117.15,472.16Z" style="fill:#e0e0e0"></path><path d="M141.47,472.16a35.07,35.07,0,0,1-6.08.26,35,35,0,0,1-6.08-.26,36.2,36.2,0,0,1,6.08-.26A36.3,36.3,0,0,1,141.47,472.16Z" style="fill:#e0e0e0"></path><path d="M165.78,472.16a35,35,0,0,1-6.08.26,35,35,0,0,1-6.08-.26,36.2,36.2,0,0,1,6.08-.26A36.2,36.2,0,0,1,165.78,472.16Z" style="fill:#e0e0e0"></path><path d="M190.09,472.16a34.9,34.9,0,0,1-6.07.26,35,35,0,0,1-6.08-.26,36.2,36.2,0,0,1,6.08-.26A36.13,36.13,0,0,1,190.09,472.16Z" style="fill:#e0e0e0"></path><path d="M214.41,472.16a35,35,0,0,1-6.08.26,35,35,0,0,1-6.08-.26,36.2,36.2,0,0,1,6.08-.26A36.2,36.2,0,0,1,214.41,472.16Z" style="fill:#e0e0e0"></path><path d="M238.72,472.16a35,35,0,0,1-6.08.26,34.9,34.9,0,0,1-6.07-.26,36.13,36.13,0,0,1,6.07-.26A36.2,36.2,0,0,1,238.72,472.16Z" style="fill:#e0e0e0"></path><path d="M263,472.16a35,35,0,0,1-6.08.26,35,35,0,0,1-6.08-.26,36.2,36.2,0,0,1,6.08-.26A36.2,36.2,0,0,1,263,472.16Z" style="fill:#e0e0e0"></path><path d="M287.35,472.16a35,35,0,0,1-6.08.26,35.07,35.07,0,0,1-6.08-.26,36.3,36.3,0,0,1,6.08-.26A36.2,36.2,0,0,1,287.35,472.16Z" style="fill:#e0e0e0"></path><path d="M311.67,472.16a35.07,35.07,0,0,1-6.08.26,35,35,0,0,1-6.08-.26,71.22,71.22,0,0,1,12.16,0Z" style="fill:#e0e0e0"></path><path d="M336,472.16a71.22,71.22,0,0,1-12.16,0,71.22,71.22,0,0,1,12.16,0Z" style="fill:#e0e0e0"></path><path d="M360.29,472.16a71.1,71.1,0,0,1-12.15,0,71.1,71.1,0,0,1,12.15,0Z" style="fill:#e0e0e0"></path><path d="M384.61,472.16a71.22,71.22,0,0,1-12.16,0,71.22,71.22,0,0,1,12.16,0Z" style="fill:#e0e0e0"></path><path d="M408.92,472.16a71.1,71.1,0,0,1-12.15,0,71.1,71.1,0,0,1,12.15,0Z" style="fill:#e0e0e0"></path><path d="M433.24,472.16a71.22,71.22,0,0,1-12.16,0,71.22,71.22,0,0,1,12.16,0Z" style="fill:#e0e0e0"></path><path d="M457.55,472.16a71.22,71.22,0,0,1-12.16,0,71.22,71.22,0,0,1,12.16,0Z" style="fill:#e0e0e0"></path><path d="M481.87,472.16a71.22,71.22,0,0,1-12.16,0,71.22,71.22,0,0,1,12.16,0Z" style="fill:#e0e0e0"></path><path d="M506.18,472.16a71.22,71.22,0,0,1-12.16,0,71.22,71.22,0,0,1,12.16,0Z" style="fill:#e0e0e0"></path><path d="M530.49,472.16a71.1,71.1,0,0,1-12.15,0,71.1,71.1,0,0,1,12.15,0Z" style="fill:#e0e0e0"></path><path d="M554.81,472.16a71.22,71.22,0,0,1-12.16,0,71.22,71.22,0,0,1,12.16,0Z" style="fill:#e0e0e0"></path><path d="M579.12,472.16a71.1,71.1,0,0,1-12.15,0,71.1,71.1,0,0,1,12.15,0Z" style="fill:#e0e0e0"></path><path d="M603.44,472.16a71.22,71.22,0,0,1-12.16,0,71.22,71.22,0,0,1,12.16,0Z" style="fill:#e0e0e0"></path><path d="M627.75,472.16a71.22,71.22,0,0,1-12.16,0,71.22,71.22,0,0,1,12.16,0Z" style="fill:#e0e0e0"></path><path d="M652.07,472.16a71.22,71.22,0,0,1-12.16,0,71.22,71.22,0,0,1,12.16,0Z" style="fill:#e0e0e0"></path><path d="M676.38,472.16a71.22,71.22,0,0,1-12.16,0,71.22,71.22,0,0,1,12.16,0Z" style="fill:#e0e0e0"></path><path d="M694.54,472.16a17.44,17.44,0,0,1-6,0,17.44,17.44,0,0,1,6,0Z" style="fill:#e0e0e0"></path><path d="M68.52,434.39a8.68,8.68,0,0,1-3,.26,8.72,8.72,0,0,1-3-.26,9,9,0,0,1,3-.26A9,9,0,0,1,68.52,434.39Z" style="fill:#e0e0e0"></path><path d="M92.84,434.39a35,35,0,0,1-6.08.26,35,35,0,0,1-6.08-.26,36.2,36.2,0,0,1,6.08-.26A36.2,36.2,0,0,1,92.84,434.39Z" style="fill:#e0e0e0"></path><path d="M117.15,434.39a35,35,0,0,1-6.08.26,35,35,0,0,1-6.08-.26,36.2,36.2,0,0,1,6.08-.26A36.2,36.2,0,0,1,117.15,434.39Z" style="fill:#e0e0e0"></path><path d="M141.47,434.39a35.07,35.07,0,0,1-6.08.26,35,35,0,0,1-6.08-.26,36.2,36.2,0,0,1,6.08-.26A36.3,36.3,0,0,1,141.47,434.39Z" style="fill:#e0e0e0"></path><path d="M165.78,434.39a35,35,0,0,1-6.08.26,35,35,0,0,1-6.08-.26,36.2,36.2,0,0,1,6.08-.26A36.2,36.2,0,0,1,165.78,434.39Z" style="fill:#e0e0e0"></path><path d="M190.09,434.39a34.9,34.9,0,0,1-6.07.26,35,35,0,0,1-6.08-.26,36.2,36.2,0,0,1,6.08-.26A36.13,36.13,0,0,1,190.09,434.39Z" style="fill:#e0e0e0"></path><path d="M214.41,434.39a35,35,0,0,1-6.08.26,35,35,0,0,1-6.08-.26,36.2,36.2,0,0,1,6.08-.26A36.2,36.2,0,0,1,214.41,434.39Z" style="fill:#e0e0e0"></path><path d="M238.72,434.39a35,35,0,0,1-6.08.26,34.9,34.9,0,0,1-6.07-.26,36.13,36.13,0,0,1,6.07-.26A36.2,36.2,0,0,1,238.72,434.39Z" style="fill:#e0e0e0"></path><path d="M263,434.39a35,35,0,0,1-6.08.26,35,35,0,0,1-6.08-.26,36.2,36.2,0,0,1,6.08-.26A36.2,36.2,0,0,1,263,434.39Z" style="fill:#e0e0e0"></path><path d="M287.35,434.39a35,35,0,0,1-6.08.26,35.07,35.07,0,0,1-6.08-.26,36.3,36.3,0,0,1,6.08-.26A36.2,36.2,0,0,1,287.35,434.39Z" style="fill:#e0e0e0"></path><path d="M311.67,434.39a35.07,35.07,0,0,1-6.08.26,35,35,0,0,1-6.08-.26,71.22,71.22,0,0,1,12.16,0Z" style="fill:#e0e0e0"></path><path d="M336,434.39a71.22,71.22,0,0,1-12.16,0,71.22,71.22,0,0,1,12.16,0Z" style="fill:#e0e0e0"></path><path d="M360.29,434.39a71.1,71.1,0,0,1-12.15,0,71.1,71.1,0,0,1,12.15,0Z" style="fill:#e0e0e0"></path><path d="M384.61,434.39a71.22,71.22,0,0,1-12.16,0,71.22,71.22,0,0,1,12.16,0Z" style="fill:#e0e0e0"></path><path d="M408.92,434.39a71.1,71.1,0,0,1-12.15,0,71.1,71.1,0,0,1,12.15,0Z" style="fill:#e0e0e0"></path><path d="M433.24,434.39a71.22,71.22,0,0,1-12.16,0,71.22,71.22,0,0,1,12.16,0Z" style="fill:#e0e0e0"></path><path d="M457.55,434.39a71.22,71.22,0,0,1-12.16,0,71.22,71.22,0,0,1,12.16,0Z" style="fill:#e0e0e0"></path><path d="M481.87,434.39a71.22,71.22,0,0,1-12.16,0,71.22,71.22,0,0,1,12.16,0Z" style="fill:#e0e0e0"></path><path d="M506.18,434.39a71.22,71.22,0,0,1-12.16,0,71.22,71.22,0,0,1,12.16,0Z" style="fill:#e0e0e0"></path><path d="M530.49,434.39a71.1,71.1,0,0,1-12.15,0,71.1,71.1,0,0,1,12.15,0Z" style="fill:#e0e0e0"></path><path d="M554.81,434.39a71.22,71.22,0,0,1-12.16,0,71.22,71.22,0,0,1,12.16,0Z" style="fill:#e0e0e0"></path><path d="M579.12,434.39a71.1,71.1,0,0,1-12.15,0,71.1,71.1,0,0,1,12.15,0Z" style="fill:#e0e0e0"></path><path d="M603.44,434.39a71.22,71.22,0,0,1-12.16,0,71.22,71.22,0,0,1,12.16,0Z" style="fill:#e0e0e0"></path><path d="M627.75,434.39a71.22,71.22,0,0,1-12.16,0,71.22,71.22,0,0,1,12.16,0Z" style="fill:#e0e0e0"></path><path d="M652.07,434.39a71.22,71.22,0,0,1-12.16,0,71.22,71.22,0,0,1,12.16,0Z" style="fill:#e0e0e0"></path><path d="M676.38,434.39a71.22,71.22,0,0,1-12.16,0,71.22,71.22,0,0,1,12.16,0Z" style="fill:#e0e0e0"></path><path d="M694.54,434.39a17.44,17.44,0,0,1-6,0,17.44,17.44,0,0,1,6,0Z" style="fill:#e0e0e0"></path><rect x="203.01" y="356.4" width="1.57" height="8.21" transform="translate(408.78 720.33) rotate(179.81)" style="fill:#e0e0e0"></rect><path d="M199.75,365a4.06,4.06,0,1,0,4.05-4.07A4.05,4.05,0,0,0,199.75,365Z" style="fill:#e0e0e0"></path><path d="M201.85,365a2,2,0,1,0,3.91,0,2,2,0,0,0-3.91,0Z" style="fill:#ebebeb"></path><rect x="192.21" y="356.43" width="1.57" height="8.21" transform="translate(387.19 720.43) rotate(179.81)" style="fill:#e0e0e0"></rect><path d="M189,365A4.06,4.06,0,1,0,193,361,4.06,4.06,0,0,0,189,365Z" style="fill:#e0e0e0"></path><path d="M191.06,365a2,2,0,0,0,3.91,0,2,2,0,0,0-2-1.95A2,2,0,0,0,191.06,365Z" style="fill:#ebebeb"></path><path d="M232.54,338c29-5,41-21.37,55.45-35.37a21.52,21.52,0,0,1,4.12-3.17,32.65,32.65,0,0,1,16.17-4.35h.65l-16.22,41.82Z" style="fill:#ebebeb"></path><rect x="93.52" y="357.43" width="1.57" height="8.21" transform="translate(189.81 722.76) rotate(179.81)" style="fill:#e0e0e0"></rect><path d="M90.26,366a4.06,4.06,0,1,0,4-4.08A4.07,4.07,0,0,0,90.26,366Z" style="fill:#e0e0e0"></path><path d="M92.37,366a2,2,0,1,0,1.94-2A2,2,0,0,0,92.37,366Z" style="fill:#ebebeb"></path><rect x="82.73" y="357.47" width="1.57" height="8.21" transform="translate(168.22 722.87) rotate(179.81)" style="fill:#e0e0e0"></rect><path d="M79.46,366.05A4.06,4.06,0,1,0,83.51,362,4.06,4.06,0,0,0,79.46,366.05Z" style="fill:#e0e0e0"></path><path d="M81.57,366.05a2,2,0,1,0,2-2A2,2,0,0,0,81.57,366.05Z" style="fill:#ebebeb"></path><path d="M303.48,339.21s0,.05,0,.08,0,0,0,.08l0,.09a.73.73,0,0,0-.05.09.9.9,0,0,1-.14.22l-.08.1,0,.06L303,340a6.23,6.23,0,0,1-.57.47c-.18.13-.38.26-.61.4a20.29,20.29,0,0,1-2.18,1.07l-.1.05s-14.15,4.22-30.91,8.8l-5.06,1.37-7.19,1.91c-2.75.71-5.5,1.42-8.19,2.09-6.68,1.67-13.07,3.16-18.43,4.22,0,0-1.46.32-3.95.73-1.11.18-2.42.37-3.9.57-2.77.36-6.14.71-9.88.92l-1.08.05-1.65.07h-.56l-.92,0h-3.17l-5.61.09-1.27,0-54.43.88-7.55.13-53.63.88h-.87c-4.81-.15-29.74-1.11-38-5.17a9.57,9.57,0,0,1-3.77-2.73,5.09,5.09,0,0,1-.3-.5,3.07,3.07,0,0,1-.25-.72,2.28,2.28,0,0,1-.06-.64.57.57,0,0,1,0-.13.59.59,0,0,1,0-.13,2.76,2.76,0,0,1,.28-.95,5,5,0,0,1,1-1.34,10.1,10.1,0,0,1,1.91-1.53l4.16-2.63L51,344.16l.3-.31a19.16,19.16,0,0,1,3.46-2.54c3.48-2.07,9.52-4.56,18.72-4.85h.06l128.81-1.58h3c4.37-.12,13.51-.27,26.82-.12,4.1.05,8.6.12,13.47.24l1,0,.93,0c14.33.36,31.78,1.06,52,2.34a11.35,11.35,0,0,1,2.9.71l.25.13.12.06a2.49,2.49,0,0,1,.24.17.52.52,0,0,1,.11.1l.12.11.08.12a0,0,0,0,1,0,0,.37.37,0,0,1,.05.11A.78.78,0,0,1,303.48,339.21Z" style="fill:#f5f5f5"></path><path d="M101.3,346.84a.91.91,0,0,1-.91.9h0a.91.91,0,0,1-.92-.9V345.5a.91.91,0,0,1,.92-.9h0a.9.9,0,0,1,.91.89Z" style="fill:#e0e0e0"></path><path d="M108.05,346.81a.92.92,0,0,1-.92.91h0a.92.92,0,0,1-.92-.9v-1.34a.9.9,0,0,1,.91-.9h0a.9.9,0,0,1,.92.89Z" style="fill:#e0e0e0"></path><path d="M104.67,346.82a.91.91,0,0,1-.91.91h0a.91.91,0,0,1-.92-.9v-1.34a.89.89,0,0,1,.91-.9h0a.91.91,0,0,1,.92.89Z" style="fill:#e0e0e0"></path><path d="M91.17,346.87a.89.89,0,0,1-.91.9h0a.92.92,0,0,1-.92-.89v-1.35a.91.91,0,0,1,.91-.9h0a.91.91,0,0,1,.92.9Z" style="fill:#e0e0e0"></path><path d="M97.92,346.85a.9.9,0,0,1-.91.9h0a.91.91,0,0,1-.92-.9v-1.34a.9.9,0,0,1,.91-.9h0a.91.91,0,0,1,.92.9Z" style="fill:#e0e0e0"></path><path d="M94.55,346.86a.9.9,0,0,1-.91.9h0a.91.91,0,0,1-.92-.9v-1.34a.91.91,0,0,1,.92-.9h0a.9.9,0,0,1,.91.9Z" style="fill:#e0e0e0"></path><path d="M121.54,346.77a.9.9,0,0,1-.91.9h0a.91.91,0,0,1-.92-.9v-1.34a.9.9,0,0,1,.91-.9h0a.91.91,0,0,1,.92.9Z" style="fill:#e0e0e0"></path><path d="M128.29,346.75a.91.91,0,0,1-.91.9h0a.91.91,0,0,1-.92-.9v-1.34a.91.91,0,0,1,.92-.9h0a.9.9,0,0,1,.91.89Z" style="fill:#e0e0e0"></path><path d="M124.92,346.76a.91.91,0,0,1-.92.9h0a.92.92,0,0,1-.92-.9v-1.34a.91.91,0,0,1,.91-.9h0a.91.91,0,0,1,.92.9Z" style="fill:#e0e0e0"></path><path d="M111.42,346.8a.9.9,0,0,1-.91.9h0a.89.89,0,0,1-.92-.89v-1.34a.91.91,0,0,1,.92-.9h0a.89.89,0,0,1,.91.89Z" style="fill:#e0e0e0"></path><path d="M118.17,346.78a.91.91,0,0,1-.92.9h0a.9.9,0,0,1-.91-.89v-1.35a.91.91,0,0,1,.91-.9h0a.91.91,0,0,1,.92.9Z" style="fill:#e0e0e0"></path><path d="M114.79,346.79a.9.9,0,0,1-.91.9h0a.91.91,0,0,1-.92-.89v-1.34a.91.91,0,0,1,.91-.91h0a.91.91,0,0,1,.92.9Z" style="fill:#e0e0e0"></path><path d="M141.79,346.7a.91.91,0,0,1-.92.9h0a.9.9,0,0,1-.91-.89v-1.34a.92.92,0,0,1,.91-.91h0a.91.91,0,0,1,.92.9Z" style="fill:#e0e0e0"></path><path d="M148.53,346.68a.9.9,0,0,1-.91.9h0a.91.91,0,0,1-.92-.89v-1.35a.91.91,0,0,1,.91-.9h0a.91.91,0,0,1,.92.9Z" style="fill:#e0e0e0"></path><path d="M145.16,346.69a.9.9,0,0,1-.91.9h0a.9.9,0,0,1-.92-.89v-1.35a.92.92,0,0,1,.92-.9h0a.9.9,0,0,1,.91.9Z" style="fill:#e0e0e0"></path><path d="M131.66,346.74a.9.9,0,0,1-.91.9h0a.91.91,0,0,1-.92-.9V345.4a.9.9,0,0,1,.91-.9h0a.91.91,0,0,1,.92.89Z" style="fill:#e0e0e0"></path><path d="M138.41,346.71a.92.92,0,0,1-.91.91h0a.91.91,0,0,1-.92-.9v-1.34a.89.89,0,0,1,.91-.9h0a.91.91,0,0,1,.92.89Z" style="fill:#e0e0e0"></path><path d="M135,346.72a.91.91,0,0,1-.91.91h0a.91.91,0,0,1-.92-.9v-1.34a.9.9,0,0,1,.91-.9h0a.91.91,0,0,1,.92.89Z" style="fill:#e0e0e0"></path><path d="M162,346.63a.91.91,0,0,1-.91.91h0a.91.91,0,0,1-.92-.9V345.3a.91.91,0,0,1,.92-.9h0a.9.9,0,0,1,.91.89Z" style="fill:#e0e0e0"></path><path d="M168.78,346.61a.92.92,0,0,1-.92.91h0a.9.9,0,0,1-.91-.9v-1.34a.9.9,0,0,1,.91-.9h0a.89.89,0,0,1,.92.89Z" style="fill:#e0e0e0"></path><path d="M165.4,346.62a.91.91,0,0,1-.91.91h0a.91.91,0,0,1-.92-.9v-1.34a.9.9,0,0,1,.91-.9h0a.9.9,0,0,1,.92.89Z" style="fill:#e0e0e0"></path><path d="M151.91,346.67a.9.9,0,0,1-.91.9h0a.91.91,0,0,1-.92-.9v-1.34a.91.91,0,0,1,.92-.9h0a.9.9,0,0,1,.91.9Z" style="fill:#e0e0e0"></path><path d="M158.65,346.65a.9.9,0,0,1-.91.9h0a.92.92,0,0,1-.92-.9v-1.34a.9.9,0,0,1,.91-.9h0a.91.91,0,0,1,.92.89Z" style="fill:#e0e0e0"></path><path d="M155.28,346.66a.91.91,0,0,1-.91.9h0a.91.91,0,0,1-.92-.9v-1.34a.9.9,0,0,1,.91-.9h0a.92.92,0,0,1,.92.9Z" style="fill:#e0e0e0"></path><path d="M84.6,346.89a.9.9,0,0,1-.91.9h0a.91.91,0,0,1-.92-.89v-1.34a.92.92,0,0,1,.91-.91h0a.91.91,0,0,1,.92.9Z" style="fill:#e0e0e0"></path><path d="M88,346.88a.91.91,0,0,1-.92.9h0a.9.9,0,0,1-.91-.89v-1.35a.91.91,0,0,1,.91-.9h0a.91.91,0,0,1,.92.9Z" style="fill:#e0e0e0"></path><path d="M172.15,346.6a.9.9,0,0,1-.91.9h0a.9.9,0,0,1-.92-.89v-1.34a.91.91,0,0,1,.91-.91h0a.92.92,0,0,1,.92.9Z" style="fill:#e0e0e0"></path><path d="M178.9,346.58a.9.9,0,0,1-.91.9h0a.91.91,0,0,1-.92-.9v-1.34a.91.91,0,0,1,.92-.9h0a.9.9,0,0,1,.91.9Z" style="fill:#e0e0e0"></path><path d="M175.52,346.59a.89.89,0,0,1-.91.9h0a.92.92,0,0,1-.92-.89v-1.35a.91.91,0,0,1,.91-.9h0a.91.91,0,0,1,.92.9Z" style="fill:#e0e0e0"></path><path d="M202.59,346.23a.91.91,0,0,1-.91.91h0a.91.91,0,0,1-.92-.9V344.9a.91.91,0,0,1,.92-.9h0a.9.9,0,0,1,.91.89Z" style="fill:#e0e0e0"></path><path d="M209.34,346.21a.91.91,0,0,1-.92.9h0a.9.9,0,0,1-.91-.89v-1.34a.9.9,0,0,1,.91-.9h0a.9.9,0,0,1,.92.89Z" style="fill:#e0e0e0"></path><path d="M206,346.22a.91.91,0,0,1-.91.91h0a.91.91,0,0,1-.92-.9v-1.34a.9.9,0,0,1,.91-.9h0a.91.91,0,0,1,.92.89Z" style="fill:#e0e0e0"></path><path d="M192.47,346.27a.91.91,0,0,1-.92.9h0a.9.9,0,0,1-.91-.9v-1.34a.91.91,0,0,1,.91-.9h0a.91.91,0,0,1,.92.9Z" style="fill:#e0e0e0"></path><path d="M199.21,346.25a.9.9,0,0,1-.91.9h0a.92.92,0,0,1-.92-.9v-1.34a.9.9,0,0,1,.91-.9h0a.91.91,0,0,1,.92.89Z" style="fill:#e0e0e0"></path><path d="M195.84,346.26a.91.91,0,0,1-.91.9h0a.91.91,0,0,1-.92-.9v-1.34a.9.9,0,0,1,.91-.9h0a.92.92,0,0,1,.92.9Z" style="fill:#e0e0e0"></path><path d="M222.83,346.17a.9.9,0,0,1-.91.9h0a.91.91,0,0,1-.92-.9v-1.34a.9.9,0,0,1,.91-.9h0a.91.91,0,0,1,.92.9Z" style="fill:#e0e0e0"></path><path d="M226.21,346.16a.91.91,0,0,1-.91.9h0a.91.91,0,0,1-.92-.9v-1.34a.91.91,0,0,1,.91-.9h0a.91.91,0,0,1,.92.9Z" style="fill:#e0e0e0"></path><path d="M212.71,346.2a.9.9,0,0,1-.91.9h0a.9.9,0,0,1-.92-.89v-1.34a.91.91,0,0,1,.91-.91h0a.91.91,0,0,1,.92.9Z" style="fill:#e0e0e0"></path><path d="M219.46,346.18a.9.9,0,0,1-.91.9h0a.91.91,0,0,1-.92-.89v-1.35a.91.91,0,0,1,.92-.9h0a.92.92,0,0,1,.92.9Z" style="fill:#e0e0e0"></path><path d="M216.08,346.19a.89.89,0,0,1-.91.9h0a.9.9,0,0,1-.91-.89v-1.35a.91.91,0,0,1,.91-.9h0a.91.91,0,0,1,.92.9Z" style="fill:#e0e0e0"></path><path d="M229.46,346.15a.91.91,0,0,1-.92.9h0a.9.9,0,0,1-.91-.9v-1.34a.9.9,0,0,1,.91-.9h0a.91.91,0,0,1,.92.89Z" style="fill:#e0e0e0"></path><path d="M38.92,354.88a.59.59,0,0,1,0-.13c7.31,1.57,18,3.59,25.53,3.7L245,357c-6.69,1.68-9.85,2.37-15.21,3.43,0,0-1.46.32-3.95.73-1.11.18-2.42.37-3.9.57-2.77.36-6.14.71-9.88.92l-1.08.05-1.65.07h-.56l-.92,0h-3.17l-5.61.09-1.27,0-54.43.88-7.55.13-53.63.88h-.87c-4.81-.15-29.74-1.11-38-5.17a9.57,9.57,0,0,1-3.77-2.73,5.09,5.09,0,0,1-.3-.5,3.07,3.07,0,0,1-.25-.72,2.28,2.28,0,0,1-.06-.64A.57.57,0,0,1,38.92,354.88Z" style="fill:#ebebeb"></path><path d="M134.59,357.88s1.6-5.49,24.3-8.8c13.23-1.93,102.69-11.88,106.87-8.49S201,358,201,358Z" style="fill:#ebebeb"></path><path d="M122.42,358c0-.14,26.69-.5,59.62-.8s59.62-.42,59.62-.28-26.68.5-59.62.8S122.42,358.12,122.42,358Z" style="fill:#e0e0e0"></path><path d="M161.52,350.49s25.36.22,25.65,8.48c.25,7.21-10.31,7.91-25.65,7.71Z" style="fill:#e0e0e0"></path><path d="M160.57,358.61c0,4.48.39,8.11.83,8.11s.79-3.64.78-8.12-.39-8.11-.83-8.11S160.55,354.12,160.57,358.61Z" style="fill:#e0e0e0"></path><path d="M164.71,366.71c-.08,0,.12-.89.26-2.33s.28-3.42.32-5.62a45.16,45.16,0,0,0-.22-5.61c-.15-1.44-.49-2.25-.41-2.29a4.88,4.88,0,0,1,.78,2.23,31.5,31.5,0,0,1,.37,5.68,38.8,38.8,0,0,1-.47,5.66A6.77,6.77,0,0,1,164.71,366.71Z" style="fill:#ebebeb"></path><path d="M175.13,366.36c7.6-.69,12.21-2.6,12-7.39-.14-4.05-5.8-6.07-12-7.18,0,0,1.25,2.08,1.23,7.28C176.33,365.24,175.13,366.36,175.13,366.36Z" style="fill:#f5f5f5"></path><path d="M161.52,350.49a1.3,1.3,0,0,1,0,.31c0,.24,0,.53,0,.88,0,.82,0,1.92.06,3.3,0,2.87.06,6.88.11,11.7l-.21-.22c3,0,6.24,0,9.74-.11,1.75-.07,3.55-.18,5.38-.41a26,26,0,0,0,5.5-1.18,9,9,0,0,0,3.19-1.79,4.8,4.8,0,0,0,1.53-3.06,5,5,0,0,0-.07-1.69,4.06,4.06,0,0,0-.73-1.47,8.19,8.19,0,0,0-2.55-2.06,25.39,25.39,0,0,0-5.84-2.14c-1.91-.46-3.71-.78-5.37-1-3.31-.49-6-.7-7.88-.83l-2.15-.14-.76-.06a3.26,3.26,0,0,1,.76,0c.49,0,1.22,0,2.16,0,1.88.07,4.59.22,7.93.66,1.66.23,3.48.53,5.41,1a24.85,24.85,0,0,1,6,2.14,8.54,8.54,0,0,1,2.72,2.18,4.57,4.57,0,0,1,.82,1.65,5.61,5.61,0,0,1,.09,1.87,5.34,5.34,0,0,1-1.69,3.37,9.29,9.29,0,0,1-3.36,1.91,26.38,26.38,0,0,1-5.62,1.2c-1.85.23-3.66.33-5.42.4-3.52.13-6.8.09-9.77,0h-.21v-.21c0-4.88.08-8.93.11-11.83,0-1.36,0-2.45.06-3.25A11.08,11.08,0,0,1,161.52,350.49Z" style="fill:#e0e0e0"></path><path d="M75.41,354a.9.9,0,0,1-.32,0,2.23,2.23,0,0,1-.91-.25,2.52,2.52,0,0,1-1.07-1.06,2.36,2.36,0,0,1-.27-.91c0-.35,0-.67,0-1l-.07-5A3.27,3.27,0,0,1,73,344.3,2.58,2.58,0,0,1,74,343.07a3,3,0,0,1,1.63-.38h1.6a2.69,2.69,0,0,1,2.59,2,6.54,6.54,0,0,1,.09,1.56v1.45l0,2.67v1.21a2.64,2.64,0,0,1-.27,1.16,2.53,2.53,0,0,1-1.51,1.3,4.15,4.15,0,0,1-1.48.1,6.85,6.85,0,0,1-1.24-.09,5,5,0,0,1,1.24-.11,4.47,4.47,0,0,0,1.39-.17,2.29,2.29,0,0,0,1.27-1.19,2.35,2.35,0,0,0,.2-1l0-1.21,0-2.67,0-1.45a6,6,0,0,0-.08-1.43,2.16,2.16,0,0,0-2.09-1.59H75.66a2.39,2.39,0,0,0-1.37.3,2.13,2.13,0,0,0-.89,1,2.83,2.83,0,0,0-.19,1.31l0,5a3.77,3.77,0,0,0,.21,1.81,2.31,2.31,0,0,0,.9,1A4.46,4.46,0,0,0,75.41,354Z" style="fill:#e0e0e0"></path><path d="M51.34,343.85l5.95,0a3.73,3.73,0,0,1,2.62,1.08l3.55,3.52-17.36-.17Z" style="fill:#fafafa"></path><rect x="56.14" y="343.55" width="0.87" height="5" transform="translate(-1.15 0.19) rotate(-0.19)" style="fill:#e0e0e0"></rect><rect x="610.56" y="360.75" width="1.16" height="6.1" transform="translate(1223.46 725.6) rotate(179.81)" style="fill:#e0e0e0"></rect><path d="M608.13,367.13a3,3,0,1,0,3-3A3,3,0,0,0,608.13,367.13Z" style="fill:#e0e0e0"></path><path d="M609.7,367.12a1.45,1.45,0,1,0,1.44-1.45A1.44,1.44,0,0,0,609.7,367.12Z" style="fill:#ebebeb"></path><rect x="602.53" y="360.77" width="1.16" height="6.1" transform="translate(1207.45 725.63) rotate(179.81)" style="fill:#e0e0e0"></rect><path d="M600.11,367.16a3,3,0,1,0,3-3A3,3,0,0,0,600.11,367.16Z" style="fill:#e0e0e0"></path><path d="M601.67,367.15a1.46,1.46,0,1,0,1.45-1.46A1.47,1.47,0,0,0,601.67,367.15Z" style="fill:#ebebeb"></path><path d="M632.5,347.06c21.56-3.72,30.43-15.88,41.2-26.28a15.61,15.61,0,0,1,3.06-2.36,24.15,24.15,0,0,1,12-3.23h.48l-12,31.06Z" style="fill:#ebebeb"></path><rect x="529.21" y="361.52" width="1.16" height="6.1" transform="translate(1060.8 727.35) rotate(179.81)" style="fill:#e0e0e0"></rect><path d="M526.78,367.9a3,3,0,1,0,3-3A3,3,0,0,0,526.78,367.9Z" style="fill:#e0e0e0"></path><path d="M528.35,367.89a1.45,1.45,0,1,0,1.44-1.46A1.45,1.45,0,0,0,528.35,367.89Z" style="fill:#ebebeb"></path><rect x="521.18" y="361.54" width="1.16" height="6.1" transform="translate(1044.72 727.48) rotate(179.81)" style="fill:#e0e0e0"></rect><path d="M518.76,367.92a3,3,0,1,0,3-3A3,3,0,0,0,518.76,367.92Z" style="fill:#e0e0e0"></path><path d="M520.32,367.92a1.46,1.46,0,1,0,1.45-1.46A1.47,1.47,0,0,0,520.32,367.92Z" style="fill:#ebebeb"></path><path d="M685.2,348a.15.15,0,0,1,0,.07.13.13,0,0,1,0,.06s0,0,0,.06a.25.25,0,0,1,0,.07.7.7,0,0,1-.1.16l-.06.08,0,0-.06.07a3.23,3.23,0,0,1-.42.35l-.46.3a13.5,13.5,0,0,1-1.61.79l-.08,0s-10.51,3.14-23,6.53l-3.77,1L650.22,359c-2,.53-4.08,1.06-6.08,1.55-5,1.25-9.71,2.35-13.7,3.15,0,0-1.08.23-2.93.53-.82.14-1.8.28-2.89.43-2.07.27-4.57.53-7.35.68l-.8,0-1.23,0h-.41l-.68,0h-2.36l-4.17.07-.94,0-40.44.65-5.61.1-39.85.65h-.64c-3.58-.11-22.1-.83-28.26-3.84a7.16,7.16,0,0,1-2.8-2c-.08-.12-.15-.24-.22-.37a2.58,2.58,0,0,1-.19-.53,2,2,0,0,1,0-.48.34.34,0,0,1,0-.1.38.38,0,0,1,0-.1,2.22,2.22,0,0,1,.21-.7,3.61,3.61,0,0,1,.73-1,7.71,7.71,0,0,1,1.41-1.14l3.1-1.95,3.54-3.07a1.9,1.9,0,0,1,.23-.23,13.87,13.87,0,0,1,2.57-1.89c2.58-1.54,7.07-3.39,13.91-3.6h0l95.71-1.18h2.23c3.25-.08,10-.2,19.93-.09,3,0,6.38.09,10,.18l.73,0h.69c10.64.27,23.61.79,38.6,1.75a8.19,8.19,0,0,1,2.15.53l.19.09.08.05.19.12.08.07.08.09.07.08h0l0,.08A.55.55,0,0,1,685.2,348Z" style="fill:#f5f5f5"></path><path d="M535,353.64a.69.69,0,0,1-.67.68h0a.68.68,0,0,1-.69-.67v-1a.67.67,0,0,1,.68-.67h0a.68.68,0,0,1,.68.67Z" style="fill:#e0e0e0"></path><path d="M540,353.63a.68.68,0,0,1-.68.67h0a.67.67,0,0,1-.68-.67v-1a.68.68,0,0,1,.68-.67h0a.66.66,0,0,1,.68.66Z" style="fill:#e0e0e0"></path><path d="M537.49,353.64a.67.67,0,0,1-.68.67h0a.68.68,0,0,1-.68-.67v-1a.68.68,0,0,1,.67-.67h0a.68.68,0,0,1,.69.67Z" style="fill:#e0e0e0"></path><path d="M527.46,353.67a.67.67,0,0,1-.68.67h0a.68.68,0,0,1-.68-.67v-1a.67.67,0,0,1,.68-.67h0a.67.67,0,0,1,.68.66Z" style="fill:#e0e0e0"></path><path d="M532.48,353.65a.68.68,0,0,1-.68.67h0a.66.66,0,0,1-.68-.66v-1a.68.68,0,0,1,.68-.67h0a.67.67,0,0,1,.68.67Z" style="fill:#e0e0e0"></path><path d="M530,353.66a.67.67,0,0,1-.68.67h0a.68.68,0,0,1-.68-.66v-1a.66.66,0,0,1,.67-.67h0a.69.69,0,0,1,.69.66Z" style="fill:#e0e0e0"></path><path d="M550,353.59a.68.68,0,0,1-.67.68h0a.69.69,0,0,1-.69-.67v-1a.67.67,0,0,1,.68-.67h0a.68.68,0,0,1,.68.67Z" style="fill:#e0e0e0"></path><path d="M555,353.58a.67.67,0,0,1-.68.67h0a.68.68,0,0,1-.68-.67v-1a.66.66,0,0,1,.67-.67h0a.67.67,0,0,1,.69.66Z" style="fill:#e0e0e0"></path><path d="M552.53,353.59a.67.67,0,0,1-.68.67h0a.68.68,0,0,1-.68-.67v-1a.69.69,0,0,1,.68-.67h0a.68.68,0,0,1,.68.67Z" style="fill:#e0e0e0"></path><path d="M542.5,353.62a.67.67,0,0,1-.67.67h0a.69.69,0,0,1-.69-.67v-1a.67.67,0,0,1,.68-.67h0a.67.67,0,0,1,.68.66Z" style="fill:#e0e0e0"></path><path d="M547.52,353.6a.67.67,0,0,1-.68.67h0a.66.66,0,0,1-.68-.66v-1a.68.68,0,0,1,.68-.67h0a.67.67,0,0,1,.68.67Z" style="fill:#e0e0e0"></path><path d="M545,353.61a.67.67,0,0,1-.68.67h0a.67.67,0,0,1-.68-.66v-1a.67.67,0,0,1,.68-.67h0a.68.68,0,0,1,.68.66Z" style="fill:#e0e0e0"></path><path d="M565.07,353.54a.69.69,0,0,1-.68.68h0a.67.67,0,0,1-.68-.67v-1a.67.67,0,0,1,.68-.67h0a.67.67,0,0,1,.68.67Z" style="fill:#e0e0e0"></path><path d="M570.08,353.53a.67.67,0,0,1-.68.67h0a.68.68,0,0,1-.68-.67v-1a.66.66,0,0,1,.67-.67h0a.67.67,0,0,1,.69.66Z" style="fill:#e0e0e0"></path><path d="M567.57,353.54a.67.67,0,0,1-.68.67h0a.68.68,0,0,1-.68-.67v-1a.69.69,0,0,1,.68-.67h0a.68.68,0,0,1,.68.67Z" style="fill:#e0e0e0"></path><path d="M557.54,353.57a.66.66,0,0,1-.67.67h0a.67.67,0,0,1-.68-.67v-1a.67.67,0,0,1,.68-.67h0a.66.66,0,0,1,.68.66Z" style="fill:#e0e0e0"></path><path d="M562.56,353.55a.67.67,0,0,1-.68.67h0a.66.66,0,0,1-.68-.66v-1a.66.66,0,0,1,.67-.67h0a.67.67,0,0,1,.68.67Z" style="fill:#e0e0e0"></path><path d="M560.05,353.56a.67.67,0,0,1-.68.67h0a.67.67,0,0,1-.68-.66v-1a.67.67,0,0,1,.68-.67h0a.68.68,0,0,1,.68.66Z" style="fill:#e0e0e0"></path><path d="M580.11,353.49a.69.69,0,0,1-.68.68h0a.67.67,0,0,1-.68-.67v-1a.68.68,0,0,1,.68-.67h0a.67.67,0,0,1,.68.67Z" style="fill:#e0e0e0"></path><path d="M585.12,353.48a.67.67,0,0,1-.68.67h0a.68.68,0,0,1-.68-.67v-1a.67.67,0,0,1,.68-.67h0a.67.67,0,0,1,.68.66Z" style="fill:#e0e0e0"></path><path d="M582.61,353.49a.67.67,0,0,1-.67.67h0a.69.69,0,0,1-.69-.67v-1a.69.69,0,0,1,.68-.67h0a.68.68,0,0,1,.68.67Z" style="fill:#e0e0e0"></path><path d="M572.59,353.52a.68.68,0,0,1-.68.67h0a.67.67,0,0,1-.68-.67v-1a.68.68,0,0,1,.68-.67h0a.66.66,0,0,1,.68.66Z" style="fill:#e0e0e0"></path><path d="M577.6,353.5a.67.67,0,0,1-.68.67h0a.66.66,0,0,1-.68-.66v-1a.67.67,0,0,1,.68-.67h0a.68.68,0,0,1,.68.67Z" style="fill:#e0e0e0"></path><path d="M575.09,353.51a.67.67,0,0,1-.68.67h0a.67.67,0,0,1-.68-.66v-1a.67.67,0,0,1,.68-.67h0a.68.68,0,0,1,.68.66Z" style="fill:#e0e0e0"></path><path d="M522.58,353.69a.69.69,0,0,1-.68.67h0a.68.68,0,0,1-.68-.67v-1a.67.67,0,0,1,.67-.67h0a.68.68,0,0,1,.69.67Z" style="fill:#e0e0e0"></path><path d="M525.09,353.68a.68.68,0,0,1-.68.67h0a.67.67,0,0,1-.68-.67v-1a.69.69,0,0,1,.68-.67h0a.67.67,0,0,1,.68.67Z" style="fill:#e0e0e0"></path><path d="M587.63,353.47a.67.67,0,0,1-.68.67h0a.67.67,0,0,1-.68-.67v-1a.66.66,0,0,1,.67-.67h0a.66.66,0,0,1,.68.66Z" style="fill:#e0e0e0"></path><path d="M592.64,353.45a.67.67,0,0,1-.68.67h0a.66.66,0,0,1-.68-.66v-1a.67.67,0,0,1,.68-.67h0a.68.68,0,0,1,.68.67Z" style="fill:#e0e0e0"></path><path d="M590.13,353.46a.66.66,0,0,1-.67.67h0a.68.68,0,0,1-.69-.66v-1a.67.67,0,0,1,.68-.67h0a.68.68,0,0,1,.68.66Z" style="fill:#e0e0e0"></path><path d="M610.24,353.2a.67.67,0,0,1-.67.67h0a.68.68,0,0,1-.69-.67v-1a.67.67,0,0,1,.68-.67h0a.66.66,0,0,1,.68.66Z" style="fill:#e0e0e0"></path><path d="M615.26,353.18a.68.68,0,0,1-.68.67h0a.67.67,0,0,1-.68-.66v-1a.68.68,0,0,1,.68-.67h0a.67.67,0,0,1,.68.66Z" style="fill:#e0e0e0"></path><path d="M612.75,353.19a.67.67,0,0,1-.68.67h0a.68.68,0,0,1-.68-.67v-1a.66.66,0,0,1,.67-.67h0a.67.67,0,0,1,.69.66Z" style="fill:#e0e0e0"></path><path d="M602.72,353.22a.67.67,0,0,1-.68.67h0a.67.67,0,0,1-.68-.66v-1a.67.67,0,0,1,.68-.67h0a.68.68,0,0,1,.68.67Z" style="fill:#e0e0e0"></path><path d="M607.74,353.21a.69.69,0,0,1-.68.67h0a.67.67,0,0,1-.68-.67v-1a.69.69,0,0,1,.68-.67h0a.67.67,0,0,1,.68.67Z" style="fill:#e0e0e0"></path><path d="M605.23,353.21a.67.67,0,0,1-.68.67h0a.66.66,0,0,1-.68-.66v-1a.66.66,0,0,1,.67-.67h0a.69.69,0,0,1,.69.67Z" style="fill:#e0e0e0"></path><path d="M625.28,353.15a.67.67,0,0,1-.67.67h0a.69.69,0,0,1-.69-.67v-1a.67.67,0,0,1,.68-.67h0a.66.66,0,0,1,.68.66Z" style="fill:#e0e0e0"></path><path d="M627.79,353.14a.67.67,0,0,1-.68.67h0a.68.68,0,0,1-.68-.67v-1a.67.67,0,0,1,.68-.67h0a.67.67,0,0,1,.68.66Z" style="fill:#e0e0e0"></path><path d="M617.76,353.17a.67.67,0,0,1-.67.67h0a.68.68,0,0,1-.69-.66v-1a.67.67,0,0,1,.68-.67h0a.68.68,0,0,1,.68.67Z" style="fill:#e0e0e0"></path><path d="M622.78,353.16a.69.69,0,0,1-.68.67h0a.67.67,0,0,1-.68-.67v-1a.69.69,0,0,1,.68-.67h0a.67.67,0,0,1,.68.67Z" style="fill:#e0e0e0"></path><path d="M620.27,353.16a.67.67,0,0,1-.68.67h0a.66.66,0,0,1-.68-.66v-1a.67.67,0,0,1,.68-.67h0a.68.68,0,0,1,.68.67Z" style="fill:#e0e0e0"></path><path d="M630.2,353.13a.66.66,0,0,1-.67.67h0a.69.69,0,0,1-.69-.66v-1a.67.67,0,0,1,.68-.67h0a.68.68,0,0,1,.68.67Z" style="fill:#e0e0e0"></path><path d="M488.64,359.62a.38.38,0,0,1,0-.1c5.43,1.17,13.39,2.67,19,2.76l134.12-1.1c-5,1.24-7.31,1.75-11.3,2.55,0,0-1.08.23-2.93.53-.82.14-1.8.28-2.89.43-2.07.27-4.57.53-7.35.68l-.8,0-1.23,0h-.41l-.68,0h-2.36l-4.17.07-.94,0-40.44.65-5.61.1-39.85.65h-.64c-3.58-.11-22.1-.83-28.26-3.84a7.16,7.16,0,0,1-2.8-2c-.08-.12-.15-.24-.22-.37a2.58,2.58,0,0,1-.19-.53,2,2,0,0,1,0-.48A.34.34,0,0,1,488.64,359.62Z" style="fill:#ebebeb"></path><path d="M559.72,361.85s1.19-4.08,18.06-6.54c9.82-1.43,76.29-8.83,79.4-6.3S609,362,609,362Z" style="fill:#ebebeb"></path><path d="M550.67,361.92c0-.14,19.84-.44,44.3-.66s44.3-.28,44.31-.14-19.83.44-44.3.66S550.68,362.07,550.67,361.92Z" style="fill:#e0e0e0"></path><path d="M579.73,356.36s18.84.16,19.06,6.3c.18,5.36-7.67,5.87-19.06,5.73Z" style="fill:#e0e0e0"></path><path d="M579,362.39c0,3.33.29,6,.62,6s.59-2.7.58-6-.29-6-.62-6S579,359.06,579,362.39Z" style="fill:#e0e0e0"></path><path d="M582.1,368.41a8.94,8.94,0,0,1,.15-1.73c.1-1.07.18-2.54.21-4.17a36,36,0,0,0-.14-4.17c-.1-1.06-.33-1.67-.26-1.71a3.28,3.28,0,0,1,.63,1.66,22,22,0,0,1,.29,4.22,26.84,26.84,0,0,1-.37,4.22A4.26,4.26,0,0,1,582.1,368.41Z" style="fill:#ebebeb"></path><path d="M589.84,368.15c5.65-.51,9.07-1.93,8.95-5.49-.11-3-4.31-4.51-8.95-5.33,0,0,.93,1.54.91,5.41C590.73,367.32,589.84,368.15,589.84,368.15Z" style="fill:#f5f5f5"></path><path d="M579.73,356.36a6.84,6.84,0,0,1,0,.9q0,.94.06,2.46c0,2.15.06,5.12.11,8.67l-.22-.22c2.21,0,4.64,0,7.24-.09a29.74,29.74,0,0,0,8.06-1.19,6.63,6.63,0,0,0,2.34-1.31,3.58,3.58,0,0,0,1.12-2.23,2.93,2.93,0,0,0-.57-2.31,6.11,6.11,0,0,0-1.88-1.51,18.1,18.1,0,0,0-4.32-1.58c-1.41-.35-2.75-.59-4-.78-2.46-.37-4.46-.53-5.85-.64l-1.6-.11-.56-.06a1.74,1.74,0,0,1,.56,0c.37,0,.91,0,1.61,0,1.39.05,3.41.15,5.89.48a38.82,38.82,0,0,1,4,.72,18.31,18.31,0,0,1,4.45,1.58,6.48,6.48,0,0,1,2,1.63,3.51,3.51,0,0,1,.63,1.25,5.77,5.77,0,0,1,.1.71l0,.71a4.16,4.16,0,0,1-1.27,2.55,7.28,7.28,0,0,1-2.53,1.42,29.4,29.4,0,0,1-8.21,1.2c-2.61.09-5.06.06-7.26,0h-.22v-.21c0-3.61.08-6.62.11-8.81,0-1,0-1.79,0-2.41A6.32,6.32,0,0,1,579.73,356.36Z" style="fill:#e0e0e0"></path><path d="M516.37,359a1.29,1.29,0,0,1-.89-.06,2.49,2.49,0,0,1-1.65-1.78,10.25,10.25,0,0,1-.1-1.68c0-.61,0-1.24,0-1.9a2.88,2.88,0,0,1,.62-2.12,2.69,2.69,0,0,1,2.19-.94,2.65,2.65,0,0,1,2.14,1.07,2.72,2.72,0,0,1,.48,1.07,5.65,5.65,0,0,1,0,1.07c0,.66,0,1.29,0,1.89a6.27,6.27,0,0,1-.14,1.69,2.49,2.49,0,0,1-1.75,1.68,1.39,1.39,0,0,1-.9,0s.33,0,.84-.2a2.36,2.36,0,0,0,1.46-1.59,6.24,6.24,0,0,0,.05-1.59q0-.9,0-1.89a5,5,0,0,0-.05-1,2.19,2.19,0,0,0-2.13-1.72,2.18,2.18,0,0,0-1.8.75,2.43,2.43,0,0,0-.53,1.79c0,.66,0,1.29,0,1.9a11.72,11.72,0,0,0,0,1.6,2.33,2.33,0,0,0,1.36,1.67C516.05,359,516.38,358.93,516.37,359Z" style="fill:#e0e0e0"></path><path d="M497.87,351.43l4.42,0a2.78,2.78,0,0,1,1.94.8l2.64,2.62L494,354.7Z" style="fill:#fafafa"></path><rect x="501.43" y="351.2" width="0.65" height="3.72" transform="translate(-1.17 1.66) rotate(-0.19)" style="fill:#e0e0e0"></rect><path d="M146.43,95a25.55,25.55,0,0,0-3-6.27A8.65,8.65,0,0,0,137.72,85a5.28,5.28,0,0,0-5.62,3.16c-.33-5-1-10-3.51-14.36s-7.12-7.69-12.08-7.38c-4.68.28-8.69,3.76-10.91,7.88s-3,8.86-3.72,13.49c-1.78-2.18-5.52-1.49-7.37.62s-2.32,5.06-2.72,7.84h55.83Z" style="fill:#ebebeb"></path><path d="M454,137.49a25.92,25.92,0,0,0-3-6.27,8.73,8.73,0,0,0-5.69-3.7,5.29,5.29,0,0,0-5.62,3.17c-.33-5-1-10-3.52-14.36s-7.12-7.69-12.08-7.39c-4.68.29-8.68,3.77-10.91,7.89s-3,8.86-3.72,13.49c-1.77-2.18-5.52-1.49-7.37.62s-2.32,5.06-2.71,7.84H455.2Z" style="fill:#ebebeb"></path><path d="M695.49,113a19,19,0,0,0-2.24-4.65,6.41,6.41,0,0,0-4.22-2.75,3.93,3.93,0,0,0-4.18,2.35c-.24-3.68-.76-7.46-2.61-10.66s-5.28-5.71-9-5.48c-3.48.21-6.45,2.79-8.1,5.85s-2.22,6.58-2.77,10c-1.31-1.62-4.09-1.11-5.47.46s-1.72,3.75-2,5.82h41.44Z" style="fill:#ebebeb"></path><path d="M99.12,189.55a25.92,25.92,0,0,0-3-6.27,8.65,8.65,0,0,0-5.69-3.7,5.28,5.28,0,0,0-5.62,3.17c-.33-5-1-10.05-3.52-14.36S74.15,160.7,69.19,161c-4.68.29-8.68,3.76-10.91,7.89s-3,8.86-3.72,13.49c-1.77-2.18-5.52-1.5-7.37.62s-2.32,5.06-2.71,7.84h55.83Z" style="fill:#f5f5f5"></path><path d="M586.52,170.43a25.92,25.92,0,0,0-3-6.27,8.73,8.73,0,0,0-5.69-3.7,5.29,5.29,0,0,0-5.62,3.17c-.33-5-1-10-3.52-14.36s-7.12-7.69-12.08-7.38c-4.68.28-8.68,3.76-10.91,7.88s-3,8.86-3.72,13.49c-1.77-2.18-5.52-1.49-7.37.62s-2.32,5.06-2.71,7.84h55.83Z" style="fill:#f5f5f5"></path><path d="M362.14,65.12a25.92,25.92,0,0,0-3-6.27,8.63,8.63,0,0,0-5.69-3.7,5.28,5.28,0,0,0-5.62,3.17c-.33-5-1-10-3.51-14.36s-7.12-7.69-12.08-7.39c-4.68.29-8.69,3.76-10.91,7.89s-3,8.86-3.73,13.49c-1.77-2.18-5.51-1.5-7.37.62s-2.32,5.06-2.71,7.84h55.83Z" style="fill:#f5f5f5"></path><path d="M652.35,293.65a25.35,25.35,0,0,0-3-6.26,8.61,8.61,0,0,0-5.68-3.7,5.27,5.27,0,0,0-5.62,3.16c-.33-5-1-10.05-3.52-14.36s-7.12-7.69-12.08-7.38c-4.68.28-8.68,3.76-10.91,7.88s-3,8.86-3.72,13.49c-1.77-2.17-5.52-1.49-7.37.62s-2.32,5.06-2.71,7.84h55.82Z" style="fill:#f5f5f5"></path><path d="M255.73,207.51c-1.59-4.23-3.21-8.52-5.87-12.17s-6.56-6.64-11.05-7.19-9.46,1.88-10.92,6.15c-.64-9.63-2-19.52-6.83-27.89s-13.83-14.94-23.47-14.35c-9.09.56-16.87,7.31-21.19,15.32s-5.81,17.21-7.23,26.21c-3.45-4.23-10.72-2.9-14.32,1.2s-4.51,9.83-5.27,15.23H258Z" style="fill:#ebebeb"></path><path d="M597.09,79.15c-1.38-3.69-2.79-7.43-5.11-10.61s-5.72-5.78-9.63-6.26-8.24,1.63-9.51,5.36c-.56-8.4-1.75-17-6-24.31s-12-13-20.45-12.5c-7.92.48-14.7,6.37-18.47,13.35s-5.06,15-6.3,22.83c-3-3.68-9.34-2.52-12.47,1s-3.93,8.57-4.59,13.27h94.5Z" style="fill:#ebebeb"></path><polygon points="118.38 456.84 66.09 456.84 70.09 450.74 121.32 450.74 118.38 456.84" style="fill:#e0e0e0"></polygon><polygon points="197.58 456.84 145.29 456.84 149.29 450.74 200.52 450.74 197.58 456.84" style="fill:#e0e0e0"></polygon><polygon points="276.78 456.84 224.49 456.84 228.49 450.74 279.72 450.74 276.78 456.84" style="fill:#e0e0e0"></polygon><polygon points="355.98 456.84 303.69 456.84 307.69 450.74 358.92 450.74 355.98 456.84" style="fill:#e0e0e0"></polygon><polygon points="435.18 456.84 382.88 456.84 386.89 450.74 438.12 450.74 435.18 456.84" style="fill:#e0e0e0"></polygon><polygon points="514.38 456.84 462.08 456.84 466.09 450.74 517.32 450.74 514.38 456.84" style="fill:#e0e0e0"></polygon><polygon points="593.58 456.84 541.28 456.84 545.29 450.74 596.52 450.74 593.58 456.84" style="fill:#e0e0e0"></polygon><polygon points="672.78 456.84 620.48 456.84 624.49 450.74 675.72 450.74 672.78 456.84" style="fill:#e0e0e0"></polygon><path d="M674.44,370.16c0,.15-139.58.26-311.72.26S51,370.31,51,370.16s139.55-.26,311.76-.26S674.44,370,674.44,370.16Z" style="fill:#f5f5f5"></path></g><g id="freepik--Floor--inject-44"><path d="M707.66,417.45c0,.15-148.5.26-331.64.26s-331.68-.11-331.68-.26,148.47-.26,331.68-.26S707.66,417.31,707.66,417.45Z" style="fill:#263238"></path></g><g id="freepik--vehicle-2--inject-44"><rect x="499.77" y="428.2" width="9.03" height="6.19" rx="0.55" style="fill:#FF8C43"></rect><rect x="509.36" y="427.59" width="5.03" height="6.19" rx="0.83" style="fill:#FF8C43"></rect><rect x="515.09" y="426.06" width="5.03" height="7.44" rx="0.87" style="fill:#FF8C43"></rect><path d="M507.54,442.38a3.74,3.74,0,1,1-3.74-3.74A3.73,3.73,0,0,1,507.54,442.38Z" style="fill:#263238"></path><path d="M505.67,442.38a1.87,1.87,0,1,1-1.87-1.87A1.87,1.87,0,0,1,505.67,442.38Z" style="fill:#455a64"></path><path d="M519.57,442.38a3.74,3.74,0,1,1-3.73-3.74A3.73,3.73,0,0,1,519.57,442.38Z" style="fill:#263238"></path><path d="M517.7,442.38a1.87,1.87,0,1,1-1.86-1.87A1.87,1.87,0,0,1,517.7,442.38Z" style="fill:#455a64"></path><path d="M533.52,442.38a3.74,3.74,0,1,1-3.73-3.74A3.73,3.73,0,0,1,533.52,442.38Z" style="fill:#263238"></path><path d="M531.65,442.38a1.87,1.87,0,1,1-1.86-1.87A1.87,1.87,0,0,1,531.65,442.38Z" style="fill:#455a64"></path><rect x="471.27" y="427.18" width="9.03" height="6.19" rx="0.22" style="fill:#FF8C43"></rect><path d="M481.88,427.18h3a.82.82,0,0,1,.82.82v6.88a0,0,0,0,1,0,0h-4.62a0,0,0,0,1,0,0V428A.82.82,0,0,1,481.88,427.18Z" style="fill:#FF8C43"></path><rect x="486.1" y="424.74" width="5.74" height="9.37" rx="0.79" style="fill:#FF8C43"></rect><path d="M467.75,432.76c-.14,0-.26-.77-.26-1.71s.12-1.72.26-1.72.26.77.26,1.72S467.9,432.76,467.75,432.76Z" style="fill:#e0e0e0"></path><path d="M467.89,430.3c0-.15,5.59-.26,12.49-.26s12.49.11,12.49.26-5.59.26-12.49.26S467.89,430.44,467.89,430.3Z" style="fill:#e0e0e0"></path><path d="M493,433.26c-.15,0-.26-.88-.26-2s.11-2,.26-2,.26.88.26,2S493.13,433.26,493,433.26Z" style="fill:#e0e0e0"></path><path d="M496.39,432.76c-.14,0-.26-.77-.26-1.71s.12-1.72.26-1.72.26.77.26,1.72S496.54,432.76,496.39,432.76Z" style="fill:#e0e0e0"></path><path d="M496.52,430.3c0-.15,5.6-.26,12.5-.26s12.49.11,12.49.26-5.59.26-12.49.26S496.52,430.44,496.52,430.3Z" style="fill:#e0e0e0"></path><path d="M521.63,433.26c-.15,0-.26-.88-.26-2s.11-2,.26-2,.26.88.26,2S521.77,433.26,521.63,433.26Z" style="fill:#e0e0e0"></path><rect x="467.02" y="432.54" width="26.57" height="8.98" style="fill:#455a64"></rect><rect x="467.02" y="436.65" width="1.42" height="4.87" style="fill:#FF8C43"></rect><polygon points="522.33 441.29 495.83 441.37 495.83 432.54 522.4 432.54 522.33 441.29" style="fill:#455a64"></polygon><path d="M536.85,430.27l-5.68-5.72a2.25,2.25,0,0,0-1.59-.66H522.4l-.07,17.4,14.57.2Z" style="fill:#455a64"></path><path d="M477.77,442.38a3.74,3.74,0,1,1-3.74-3.74A3.73,3.73,0,0,1,477.77,442.38Z" style="fill:#263238"></path><path d="M475.9,442.38a1.87,1.87,0,1,1-1.87-1.87A1.87,1.87,0,0,1,475.9,442.38Z" style="fill:#455a64"></path><path d="M489.42,442.38a3.74,3.74,0,1,1-3.74-3.74A3.73,3.73,0,0,1,489.42,442.38Z" style="fill:#263238"></path><path d="M487.55,442.38a1.87,1.87,0,1,1-1.87-1.87A1.87,1.87,0,0,1,487.55,442.38Z" style="fill:#455a64"></path><path d="M522.41,441.29a4.39,4.39,0,0,1-1,.1l-2.84.09-9.38.11c-3.66,0-7,0-9.38,0-1.2,0-2.17-.05-2.84-.08a3.81,3.81,0,0,1-1-.1,4.39,4.39,0,0,1,1-.1l2.84-.08,9.38-.12c3.66,0,7,0,9.38,0,1.2,0,2.17.05,2.84.08A3.81,3.81,0,0,1,522.41,441.29Z" style="fill:#263238"></path><path d="M522.41,441.29a54.15,54.15,0,0,1,0-10.6,54.15,54.15,0,0,1,0,10.6Z" style="fill:#263238"></path><path d="M523.86,425.34c.13,0,4.33,0,5.87,0a1.39,1.39,0,0,1,1,.39l3.61,4.22v1.35H524.07Z" style="fill:#263238"></path><path d="M534.2,431.43a18.24,18.24,0,0,1,.16,2.78c0,1.75.07,4.21.09,7.08v.25h-8l0-.21c-.13-.8-.26-1.57-.38-2.32l.12.17c-.56-.33-1.09-.66-1.6-1a6.5,6.5,0,0,1-.75-.53c-.17-.28-.09-.4-.12-.55v-.41c0-1.08,0-2,.06-2.8a15.06,15.06,0,0,1,.2-2.47,15.38,15.38,0,0,1,.1,2.47c0,.78,0,1.73,0,2.79l0,.4c0,.12,0,.31,0,.27a6.17,6.17,0,0,0,.68.45l1.6,1,.1.05,0,.11c.13.75.26,1.52.4,2.32l-.25-.22h7.51l-.24.25c0-2.87,0-5.33.09-7.08A19.32,19.32,0,0,1,534.2,431.43Z" style="fill:#263238"></path></g><g id="freepik--vehicle-1--inject-44"><rect x="240.21" y="458.7" width="8.86" height="6.07" rx="0.55" transform="translate(489.28 923.48) rotate(180)" style="fill:#FF8C43"></rect><rect x="234.73" y="458.1" width="4.94" height="6.07" rx="0.83" transform="translate(474.4 922.27) rotate(180)" style="fill:#FF8C43"></rect><rect x="229.1" y="456.6" width="4.94" height="7.3" rx="0.87" transform="translate(463.14 920.5) rotate(180)" style="fill:#FF8C43"></rect><path d="M241.45,472.62a3.67,3.67,0,1,0,3.67-3.67A3.67,3.67,0,0,0,241.45,472.62Z" style="fill:#263238"></path><path d="M243.28,472.62a1.84,1.84,0,1,0,1.84-1.84A1.83,1.83,0,0,0,243.28,472.62Z" style="fill:#455a64"></path><path d="M229.64,472.62a3.67,3.67,0,1,0,3.67-3.67A3.68,3.68,0,0,0,229.64,472.62Z" style="fill:#263238"></path><path d="M231.48,472.62a1.84,1.84,0,1,0,1.83-1.84A1.83,1.83,0,0,0,231.48,472.62Z" style="fill:#455a64"></path><path d="M216,472.62a3.67,3.67,0,1,0,3.67-3.67A3.68,3.68,0,0,0,216,472.62Z" style="fill:#263238"></path><path d="M217.79,472.62a1.84,1.84,0,1,0,1.83-1.84A1.83,1.83,0,0,0,217.79,472.62Z" style="fill:#455a64"></path><rect x="268.17" y="457.71" width="8.86" height="6.07" rx="0.22" transform="translate(545.21 921.49) rotate(180)" style="fill:#FF8C43"></rect><path d="M262.9,457.71h4.53a0,0,0,0,1,0,0v6.73a.82.82,0,0,1-.82.82h-2.9a.82.82,0,0,1-.82-.82v-6.73A0,0,0,0,1,262.9,457.71Z" transform="translate(530.33 922.96) rotate(180)" style="fill:#FF8C43"></path><rect x="256.86" y="455.3" width="5.63" height="9.2" rx="0.79" transform="translate(519.34 919.8) rotate(180)" style="fill:#FF8C43"></rect><path d="M280.49,463.17c-.14,0-.26-.75-.26-1.68s.12-1.68.26-1.68.26.75.26,1.68S280.64,463.17,280.49,463.17Z" style="fill:#e0e0e0"></path><path d="M280.36,460.76c0,.14-5.49.26-12.26.26s-12.26-.12-12.26-.26,5.49-.26,12.26-.26S280.36,460.61,280.36,460.76Z" style="fill:#e0e0e0"></path><path d="M255.73,463.67c-.14,0-.26-.86-.26-1.93s.12-1.93.26-1.93.26.87.26,1.93S255.87,463.67,255.73,463.67Z" style="fill:#e0e0e0"></path><path d="M252.39,463.17c-.14,0-.26-.75-.26-1.68s.12-1.68.26-1.68.26.75.26,1.68S252.53,463.17,252.39,463.17Z" style="fill:#e0e0e0"></path><path d="M252.26,460.76c0,.14-5.49.26-12.26.26s-12.26-.12-12.26-.26,5.49-.26,12.26-.26S252.26,460.61,252.26,460.76Z" style="fill:#e0e0e0"></path><path d="M227.63,463.67c-.15,0-.26-.86-.26-1.93s.11-1.93.26-1.93.26.87.26,1.93S227.77,463.67,227.63,463.67Z" style="fill:#e0e0e0"></path><rect x="255.14" y="462.96" width="26.08" height="8.81" transform="translate(536.35 934.72) rotate(180)" style="fill:#455a64"></rect><rect x="279.82" y="466.99" width="1.39" height="4.78" transform="translate(561.03 938.75) rotate(180)" style="fill:#FF8C43"></rect><polygon points="226.94 471.55 252.94 471.63 252.94 462.96 226.87 462.96 226.94 471.55" style="fill:#455a64"></polygon><path d="M212.69,460.73l5.58-5.61a2.2,2.2,0,0,1,1.55-.64h7.05l.07,17.07-14.3.19Z" style="fill:#455a64"></path><path d="M270.66,472.62a3.67,3.67,0,1,0,3.67-3.67A3.68,3.68,0,0,0,270.66,472.62Z" style="fill:#263238"></path><path d="M272.5,472.62a1.84,1.84,0,1,0,1.83-1.84A1.83,1.83,0,0,0,272.5,472.62Z" style="fill:#455a64"></path><path d="M259.23,472.62A3.67,3.67,0,1,0,262.9,469,3.67,3.67,0,0,0,259.23,472.62Z" style="fill:#263238"></path><path d="M261.06,472.62a1.84,1.84,0,1,0,1.84-1.84A1.84,1.84,0,0,0,261.06,472.62Z" style="fill:#455a64"></path><path d="M226.86,471.55a3.84,3.84,0,0,1,1-.11c.66,0,1.61-.05,2.79-.08,2.35,0,5.61-.06,9.2,0l9.2.11,2.79.09a3.65,3.65,0,0,1,1,.1,4.2,4.2,0,0,1-1,.1c-.66,0-1.61.06-2.79.08-2.35,0-5.61.06-9.2,0l-9.2-.12-2.79-.08A4.2,4.2,0,0,1,226.86,471.55Z" style="fill:#263238"></path><path d="M226.86,471.55a52.13,52.13,0,0,1,0-10.4,52.13,52.13,0,0,1,0,10.4Z" style="fill:#263238"></path><path d="M225.44,455.89c-.13,0-4.25,0-5.77,0a1.32,1.32,0,0,0-.95.38l-3.54,4.14v1.32h10Z" style="fill:#263238"></path><path d="M215.29,461.87a17,17,0,0,1,.15,2.73c0,1.71.08,4.13.09,6.95l-.24-.25,4.33,0h3l-.25.21.4-2.27v-.11l.1-.05,1.57-.94c.23-.14.51-.32.67-.44,0,0,0-.15,0-.26l0-.4c0-1,0-2,0-2.73a17.73,17.73,0,0,1,.09-2.43,12.55,12.55,0,0,1,.21,2.42c0,.77.06,1.69.06,2.75v.41c0,.15,0,.25-.12.53a6.1,6.1,0,0,1-.74.53c-.5.32-1,.64-1.57,1l.12-.17c-.12.74-.24,1.49-.37,2.28l0,.21h-3.25l-4.33,0H215v-.24c0-2.82.05-5.24.09-6.95A17.57,17.57,0,0,1,215.29,461.87Z" style="fill:#263238"></path></g><g id="freepik--Tower--inject-44"><polygon points="322.99 312.5 557.72 312.5 602.04 417.45 307.41 417.45 322.99 312.5" style="fill:#455a64"></polygon><polygon points="430.61 317.49 362.7 384.38 389.86 384.38 456.9 317.49 430.61 317.49" style="fill:#fff;opacity:0.1"></polygon><polygon points="509.89 317.49 441.99 384.38 469.15 384.38 536.19 317.49 509.89 317.49" style="fill:#fff;opacity:0.1"></polygon><polygon points="639.07 392.6 533.1 392.6 321.75 392.6 321.75 384.58 639.07 384.58 639.07 392.6" style="fill:#e0e0e0"></polygon><rect x="335.29" y="388.59" width="297.87" height="28.86" style="fill:#e0e0e0"></rect><rect x="344.19" y="398.13" width="28.99" height="19.32" style="fill:#455a64"></rect><rect x="378.66" y="398.13" width="28.99" height="19.32" style="fill:#455a64"></rect><rect x="412.79" y="398.13" width="28.99" height="19.32" style="fill:#455a64"></rect><rect x="446.91" y="398.13" width="28.99" height="19.32" style="fill:#455a64"></rect><rect x="481.04" y="398.13" width="28.99" height="19.32" style="fill:#455a64"></rect><rect x="515.16" y="398.13" width="28.99" height="19.32" style="fill:#455a64"></rect><rect x="549.29" y="398.13" width="28.99" height="19.32" style="fill:#455a64"></rect><rect x="583.41" y="398.13" width="28.99" height="19.32" style="fill:#455a64"></rect><rect x="617.72" y="398.13" width="15.43" height="19.32" style="fill:#455a64"></rect><path d="M336.79,392.58c0-.15,67.36-.27,150.45-.27s150.46.12,150.46.27-67.35.26-150.46.26S336.79,392.72,336.79,392.58Z" style="fill:#263238"></path><g style="opacity:0.30000000000000004"><path d="M374.12,316.44c.14,0,.26,15.21.26,34s-.12,34-.26,34-.26-15.21-.26-34S374,316.44,374.12,316.44Z"></path></g><g style="opacity:0.30000000000000004"><path d="M407.65,316.44c.14,0,.26,15.21.26,34s-.12,34-.26,34-.26-15.21-.26-34S407.51,316.44,407.65,316.44Z"></path></g><g style="opacity:0.30000000000000004"><path d="M441.18,316.44c.15,0,.26,15.21.26,34s-.11,34-.26,34-.26-15.21-.26-34S441,316.44,441.18,316.44Z"></path></g><g style="opacity:0.30000000000000004"><path d="M474.71,316.44c.15,0,.26,15.21.26,34s-.11,34-.26,34-.26-15.21-.26-34S474.57,316.44,474.71,316.44Z"></path></g><g style="opacity:0.30000000000000004"><path d="M508.25,316.44c.14,0,.26,15.21.26,34s-.12,34-.26,34-.27-15.21-.27-34S508.1,316.44,508.25,316.44Z"></path></g><g style="opacity:0.30000000000000004"><path d="M541.78,316.44c.14,0,.26,15.21.26,34s-.12,34-.26,34-.26-15.21-.26-34S541.63,316.44,541.78,316.44Z"></path></g><g style="opacity:0.30000000000000004"><path d="M575.31,354.15c.14,0,.26,6.77.26,15.12s-.12,15.11-.26,15.11-.26-6.77-.26-15.11S575.16,354.15,575.31,354.15Z"></path></g><g style="opacity:0.30000000000000004"><path d="M571.57,342.89c0,.14-50.81.26-113.48.26s-113.48-.12-113.48-.26,50.8-.26,113.48-.26S571.57,342.74,571.57,342.89Z"></path></g><g style="opacity:0.30000000000000004"><path d="M580.41,366.23c0,.15-52.79.26-117.89.26s-117.91-.11-117.91-.26,52.78-.26,117.91-.26S580.41,366.09,580.41,366.23Z"></path></g><polygon points="567.52 317.49 485 317.49 320.42 317.49 320.42 311.41 567.52 311.41 567.52 317.49" style="fill:#e0e0e0"></polygon><rect x="344.19" y="398.13" width="28.99" height="2.76" style="opacity:0.30000000000000004"></rect><polygon points="381 417.45 381 400.89 407.65 400.89 407.65 398.13 378.66 398.13 378.66 417.45 381 417.45" style="opacity:0.30000000000000004"></polygon><polygon points="415.12 417.45 415.12 400.89 441.77 400.89 441.77 398.13 412.79 398.13 412.79 417.45 415.12 417.45" style="opacity:0.30000000000000004"></polygon><polygon points="449.23 417.45 449.23 400.89 475.88 400.89 475.88 398.13 446.9 398.13 446.9 417.45 449.23 417.45" style="opacity:0.30000000000000004"></polygon><polygon points="483.37 417.45 483.37 400.89 510.03 400.89 510.03 398.13 481.04 398.13 481.04 417.45 483.37 417.45" style="opacity:0.30000000000000004"></polygon><polygon points="517.5 417.45 517.5 400.89 544.15 400.89 544.15 398.13 515.16 398.13 515.16 417.45 517.5 417.45" style="opacity:0.30000000000000004"></polygon><polygon points="551.62 417.45 551.62 400.89 578.28 400.89 578.28 398.13 549.29 398.13 549.29 417.45 551.62 417.45" style="opacity:0.30000000000000004"></polygon><polygon points="585.75 417.45 585.75 400.89 612.4 400.89 612.4 398.13 583.41 398.13 583.41 417.45 585.75 417.45" style="opacity:0.30000000000000004"></polygon><polygon points="620.06 417.45 620.06 400.89 633.15 400.89 633.15 398.13 617.72 398.13 617.72 417.45 620.06 417.45" style="opacity:0.30000000000000004"></polygon><polygon points="344.19 321.24 561.41 321.24 559.83 317.49 344.61 317.49 344.19 321.24" style="opacity:0.30000000000000004"></polygon><g style="opacity:0.30000000000000004"><path d="M352.83,417.71a87.31,87.31,0,0,1-.26-9.62,87.17,87.17,0,0,1,.26-9.62,90.23,90.23,0,0,1,.26,9.62A90.39,90.39,0,0,1,352.83,417.71Z"></path></g><g style="opacity:0.30000000000000004"><path d="M363.36,417.25a89.61,89.61,0,0,1-.26-9.58,89.49,89.49,0,0,1,.26-9.57,86.45,86.45,0,0,1,.26,9.57A86.56,86.56,0,0,1,363.36,417.25Z"></path></g><g style="opacity:0.30000000000000004"><path d="M363.22,408.77a52.33,52.33,0,0,1-10.42,0,52.33,52.33,0,0,1,10.42,0Z"></path></g><g style="opacity:0.30000000000000004"><path d="M358.08,417.45a35.69,35.69,0,0,1,0-8.6,35.69,35.69,0,0,1,0,8.6Z"></path></g><g style="opacity:0.30000000000000004"><path d="M388.74,417.71a90.39,90.39,0,0,1-.26-9.62,90.23,90.23,0,0,1,.26-9.62,90.23,90.23,0,0,1,.26,9.62A90.39,90.39,0,0,1,388.74,417.71Z"></path></g><g style="opacity:0.30000000000000004"><path d="M399.28,417.25a85,85,0,0,1-.27-9.58,84.86,84.86,0,0,1,.27-9.57,89.49,89.49,0,0,1,.26,9.57A89.61,89.61,0,0,1,399.28,417.25Z"></path></g><g style="opacity:0.30000000000000004"><path d="M399.13,408.77a52.33,52.33,0,0,1-10.42,0,52.33,52.33,0,0,1,10.42,0Z"></path></g><g style="opacity:0.30000000000000004"><path d="M394,417.45a35.69,35.69,0,0,1,0-8.6,35.69,35.69,0,0,1,0,8.6Z"></path></g><g style="opacity:0.30000000000000004"><path d="M423.57,417.6a86.07,86.07,0,0,1-.26-9.55,85.92,85.92,0,0,1,.26-9.55,89,89,0,0,1,.26,9.55A89.1,89.1,0,0,1,423.57,417.6Z"></path></g><g style="opacity:0.30000000000000004"><path d="M434.1,417.14a88.06,88.06,0,0,1-.26-9.5,88.33,88.33,0,0,1,.26-9.51,85.32,85.32,0,0,1,.26,9.51A85.06,85.06,0,0,1,434.1,417.14Z"></path></g><g style="opacity:0.30000000000000004"><path d="M434,408.73a52.33,52.33,0,0,1-10.42,0,52.33,52.33,0,0,1,10.42,0Z"></path></g><g style="opacity:0.30000000000000004"><path d="M428.82,417.35a35.28,35.28,0,0,1,0-8.55,35.28,35.28,0,0,1,0,8.55Z"></path></g><g style="opacity:0.30000000000000004"><path d="M456.93,417.6a89.1,89.1,0,0,1-.26-9.55,89,89,0,0,1,.26-9.55,89,89,0,0,1,.26,9.55A89.1,89.1,0,0,1,456.93,417.6Z"></path></g><g style="opacity:0.30000000000000004"><path d="M467.46,417.14a88.06,88.06,0,0,1-.26-9.5,88.33,88.33,0,0,1,.26-9.51,85.32,85.32,0,0,1,.26,9.51A85.06,85.06,0,0,1,467.46,417.14Z"></path></g><g style="opacity:0.30000000000000004"><path d="M467.32,408.73a52.33,52.33,0,0,1-10.42,0,52.33,52.33,0,0,1,10.42,0Z"></path></g><g style="opacity:0.30000000000000004"><path d="M462.19,417.35a34,34,0,0,1,0-8.55,35.28,35.28,0,0,1,0,8.55Z"></path></g><g style="opacity:0.30000000000000004"><path d="M490.28,417.6a84.5,84.5,0,0,1-.27-9.55,84.35,84.35,0,0,1,.27-9.55,89,89,0,0,1,.26,9.55A89.1,89.1,0,0,1,490.28,417.6Z"></path></g><g style="opacity:0.30000000000000004"><path d="M500.81,417.14a88.06,88.06,0,0,1-.26-9.5,88.33,88.33,0,0,1,.26-9.51,88.33,88.33,0,0,1,.26,9.51A88.06,88.06,0,0,1,500.81,417.14Z"></path></g><g style="opacity:0.30000000000000004"><path d="M500.67,408.73a52.33,52.33,0,0,1-10.42,0,52.33,52.33,0,0,1,10.42,0Z"></path></g><g style="opacity:0.30000000000000004"><path d="M495.53,417.35a35.28,35.28,0,0,1,0-8.55,35.28,35.28,0,0,1,0,8.55Z"></path></g><g style="opacity:0.30000000000000004"><path d="M524.4,417.6a89.1,89.1,0,0,1-.26-9.55,89,89,0,0,1,.26-9.55,85.92,85.92,0,0,1,.26,9.55A86.07,86.07,0,0,1,524.4,417.6Z"></path></g><g style="opacity:0.30000000000000004"><path d="M534.94,417.14a85.06,85.06,0,0,1-.26-9.5,85.32,85.32,0,0,1,.26-9.51,88.33,88.33,0,0,1,.26,9.51A88.06,88.06,0,0,1,534.94,417.14Z"></path></g><g style="opacity:0.30000000000000004"><path d="M534.79,408.73a52.33,52.33,0,0,1-10.42,0,52.33,52.33,0,0,1,10.42,0Z"></path></g><g style="opacity:0.30000000000000004"><path d="M529.66,417.35a35.28,35.28,0,0,1,0-8.55,35.28,35.28,0,0,1,0,8.55Z"></path></g><g style="opacity:0.30000000000000004"><path d="M558.53,417.6a84.5,84.5,0,0,1-.27-9.55,84.35,84.35,0,0,1,.27-9.55,89,89,0,0,1,.26,9.55A89.1,89.1,0,0,1,558.53,417.6Z"></path></g><g style="opacity:0.30000000000000004"><path d="M569.06,417.14a88.06,88.06,0,0,1-.26-9.5,88.33,88.33,0,0,1,.26-9.51,88.33,88.33,0,0,1,.26,9.51A88.06,88.06,0,0,1,569.06,417.14Z"></path></g><g style="opacity:0.30000000000000004"><path d="M568.92,408.73a52.33,52.33,0,0,1-10.42,0,52.33,52.33,0,0,1,10.42,0Z"></path></g><g style="opacity:0.30000000000000004"><path d="M563.78,417.35a35.28,35.28,0,0,1,0-8.55,35.28,35.28,0,0,1,0,8.55Z"></path></g><g style="opacity:0.30000000000000004"><path d="M592.65,417.6a86.07,86.07,0,0,1-.26-9.55,85.92,85.92,0,0,1,.26-9.55,89,89,0,0,1,.26,9.55A89.1,89.1,0,0,1,592.65,417.6Z"></path></g><g style="opacity:0.30000000000000004"><path d="M603.18,417.14a88.06,88.06,0,0,1-.26-9.5,88.33,88.33,0,0,1,.26-9.51,85.32,85.32,0,0,1,.26,9.51A85.06,85.06,0,0,1,603.18,417.14Z"></path></g><g style="opacity:0.30000000000000004"><path d="M603,408.73a52.33,52.33,0,0,1-10.42,0,52.33,52.33,0,0,1,10.42,0Z"></path></g><g style="opacity:0.30000000000000004"><path d="M597.9,417.35a35.28,35.28,0,0,1,0-8.55,35.28,35.28,0,0,1,0,8.55Z"></path></g><rect x="226.15" y="248.73" width="1.9" height="41.49" style="fill:#e0e0e0"></rect><rect x="224.65" y="277.86" width="4.8" height="11.66" style="fill:#FF8C43"></rect><path d="M228.3,265.27H226a.4.4,0,0,1-.4-.4h0a.4.4,0,0,1,.4-.4h2.35a.4.4,0,0,1,.4.4h0A.4.4,0,0,1,228.3,265.27Z" style="fill:#e0e0e0"></path><path d="M228.3,272H226a.4.4,0,0,1-.4-.4h0a.4.4,0,0,1,.4-.4h2.35a.4.4,0,0,1,.4.4h0A.4.4,0,0,1,228.3,272Z" style="fill:#e0e0e0"></path><path d="M228.3,273.34H226a.4.4,0,0,1-.4-.4h0a.4.4,0,0,1,.4-.4h2.35a.4.4,0,0,1,.4.4h0A.4.4,0,0,1,228.3,273.34Z" style="fill:#e0e0e0"></path><rect x="214.69" y="229.17" width="1.9" height="41.49" style="fill:#e0e0e0"></rect><rect x="213.19" y="258.31" width="4.8" height="31.91" style="fill:#FF8C43"></rect><path d="M216.84,245.71h-2.36a.4.4,0,0,1-.4-.4h0a.4.4,0,0,1,.4-.4h2.36a.4.4,0,0,1,.4.4h0A.4.4,0,0,1,216.84,245.71Z" style="fill:#e0e0e0"></path><path d="M216.84,252.48h-2.36a.39.39,0,0,1-.4-.39h0a.4.4,0,0,1,.4-.4h2.36a.4.4,0,0,1,.4.4h0A.39.39,0,0,1,216.84,252.48Z" style="fill:#e0e0e0"></path><path d="M216.84,253.78h-2.36a.39.39,0,0,1-.4-.39h0a.4.4,0,0,1,.4-.4h2.36a.4.4,0,0,1,.4.4h0A.39.39,0,0,1,216.84,253.78Z" style="fill:#e0e0e0"></path><rect x="189.14" y="275.31" width="0.74" height="10.79" transform="translate(-92.54 93.2) rotate(-22.36)" style="fill:#263238"></rect><rect x="195.61" y="290.41" width="2.82" height="8.34" transform="translate(-107.63 113.52) rotate(-25.5)" style="fill:#263238"></rect><path d="M205.35,273.55c-1,9.88-1.65,13.79-9.89,17.72s-12.37,1.87-20-3.46Z" style="fill:#263238"></path><rect x="134.61" y="295.27" width="203.53" height="122.18" style="fill:#FF8C43"></rect><rect x="134.61" y="304.71" width="146.94" height="11.73" style="fill:#455a64"></rect><rect x="134.61" y="329" width="146.94" height="11.73" style="fill:#455a64"></rect><rect x="134.61" y="353.3" width="146.94" height="11.73" style="fill:#455a64"></rect><rect x="134.61" y="377.59" width="146.94" height="11.73" style="fill:#455a64"></rect><rect x="134.61" y="405.91" width="10.45" height="11.73" style="fill:#455a64"></rect><rect x="151.57" y="405.91" width="10.45" height="11.54" style="fill:#455a64"></rect><rect x="134.61" y="377.59" width="146.94" height="1.88" style="opacity:0.30000000000000004"></rect><rect x="134.61" y="353.25" width="146.94" height="1.88" style="opacity:0.30000000000000004"></rect><rect x="134.61" y="328.92" width="146.94" height="1.88" style="opacity:0.30000000000000004"></rect><rect x="134.61" y="304.59" width="146.94" height="1.88" style="opacity:0.30000000000000004"></rect><rect x="134.61" y="405.91" width="10.45" height="1.68" style="opacity:0.30000000000000004"></rect><polygon points="151.57 417.45 152.8 417.45 152.8 407.24 162.02 407.24 162.02 405.91 151.57 405.91 151.57 417.45" style="opacity:0.30000000000000004"></polygon><rect x="167.04" y="405.91" width="10.45" height="11.54" style="fill:#455a64"></rect><polygon points="167.03 417.45 168.26 417.45 168.26 407.24 177.48 407.24 177.48 405.91 167.03 405.91 167.03 417.45" style="opacity:0.30000000000000004"></polygon><rect x="182.66" y="405.91" width="10.45" height="11.54" style="fill:#455a64"></rect><polygon points="182.66 417.45 183.88 417.45 183.88 407.24 193.1 407.24 193.1 405.91 182.66 405.91 182.66 417.45" style="opacity:0.30000000000000004"></polygon><rect x="198.27" y="405.91" width="10.45" height="11.54" style="fill:#455a64"></rect><polygon points="198.28 417.45 199.5 417.45 199.5 407.24 208.72 407.24 208.72 405.91 198.28 405.91 198.28 417.45" style="opacity:0.30000000000000004"></polygon><rect x="213.89" y="405.91" width="10.45" height="11.54" style="fill:#455a64"></rect><polygon points="213.89 417.45 215.12 417.45 215.12 407.24 224.34 407.24 224.34 405.91 213.89 405.91 213.89 417.45" style="opacity:0.30000000000000004"></polygon><rect x="229.51" y="405.91" width="10.45" height="11.54" style="fill:#455a64"></rect><polygon points="229.51 417.45 230.74 417.45 230.74 407.24 239.96 407.24 239.96 405.91 229.51 405.91 229.51 417.45" style="opacity:0.30000000000000004"></polygon><rect x="245.13" y="405.91" width="10.45" height="11.54" style="fill:#455a64"></rect><polygon points="245.13 417.45 246.36 417.45 246.36 407.24 255.58 407.24 255.58 405.91 245.13 405.91 245.13 417.45" style="opacity:0.30000000000000004"></polygon><rect x="260.75" y="405.91" width="10.45" height="11.54" style="fill:#455a64"></rect><polygon points="260.75 417.45 261.98 417.45 261.98 407.24 271.2 407.24 271.2 405.91 260.75 405.91 260.75 417.45" style="opacity:0.30000000000000004"></polygon><rect x="276.37" y="405.91" width="10.45" height="11.54" style="fill:#455a64"></rect><polygon points="276.37 417.45 277.6 417.45 277.6 407.24 286.82 407.24 286.82 405.91 276.37 405.91 276.37 417.45" style="opacity:0.30000000000000004"></polygon><path d="M148.47,378.52a57.25,57.25,0,0,1,0,10.9,57.25,57.25,0,0,1,0-10.9Z" style="fill:#263238"></path><path d="M165.57,378.11a58.62,58.62,0,0,1,0,11,58.62,58.62,0,0,1,0-11Z" style="fill:#263238"></path><path d="M180.19,378.11a58.62,58.62,0,0,1,0,11,58.62,58.62,0,0,1,0-11Z" style="fill:#263238"></path><path d="M194.8,378.11a58.62,58.62,0,0,1,0,11,58.62,58.62,0,0,1,0-11Z" style="fill:#263238"></path><path d="M209.42,378.11a58.62,58.62,0,0,1,0,11,58.62,58.62,0,0,1,0-11Z" style="fill:#263238"></path><path d="M224,378.11a58.62,58.62,0,0,1,0,11,58.62,58.62,0,0,1,0-11Z" style="fill:#263238"></path><path d="M238.65,378.11a58.62,58.62,0,0,1,0,11,58.62,58.62,0,0,1,0-11Z" style="fill:#263238"></path><path d="M253.27,378.11a58.62,58.62,0,0,1,0,11,58.62,58.62,0,0,1,0-11Z" style="fill:#263238"></path><path d="M267.88,378.11a58.62,58.62,0,0,1,0,11,58.62,58.62,0,0,1,0-11Z" style="fill:#263238"></path><path d="M148.37,353.92a57.15,57.15,0,0,1,0,10.89,57.15,57.15,0,0,1,0-10.89Z" style="fill:#263238"></path><path d="M165.47,353.51a58.62,58.62,0,0,1,0,11,58.62,58.62,0,0,1,0-11Z" style="fill:#263238"></path><path d="M180.08,353.51a58.62,58.62,0,0,1,0,11,58.62,58.62,0,0,1,0-11Z" style="fill:#263238"></path><path d="M194.7,353.51a58.62,58.62,0,0,1,0,11,58.62,58.62,0,0,1,0-11Z" style="fill:#263238"></path><path d="M209.32,353.51a58.62,58.62,0,0,1,0,11,58.62,58.62,0,0,1,0-11Z" style="fill:#263238"></path><path d="M223.93,353.51a58.62,58.62,0,0,1,0,11,58.62,58.62,0,0,1,0-11Z" style="fill:#263238"></path><path d="M238.55,353.51a58.62,58.62,0,0,1,0,11,58.62,58.62,0,0,1,0-11Z" style="fill:#263238"></path><path d="M253.17,353.51a58.62,58.62,0,0,1,0,11,58.62,58.62,0,0,1,0-11Z" style="fill:#263238"></path><path d="M267.78,353.51a58.62,58.62,0,0,1,0,11,58.62,58.62,0,0,1,0-11Z" style="fill:#263238"></path><path d="M148.37,329.63a57.15,57.15,0,0,1,0,10.89,57.15,57.15,0,0,1,0-10.89Z" style="fill:#263238"></path><path d="M165.47,329.22a58.62,58.62,0,0,1,0,11,58.62,58.62,0,0,1,0-11Z" style="fill:#263238"></path><path d="M180.08,329.22a58.62,58.62,0,0,1,0,11,58.62,58.62,0,0,1,0-11Z" style="fill:#263238"></path><path d="M194.7,329.22a58.62,58.62,0,0,1,0,11,58.62,58.62,0,0,1,0-11Z" style="fill:#263238"></path><path d="M209.32,329.22a58.62,58.62,0,0,1,0,11,58.62,58.62,0,0,1,0-11Z" style="fill:#263238"></path><path d="M223.93,329.22a58.62,58.62,0,0,1,0,11,58.62,58.62,0,0,1,0-11Z" style="fill:#263238"></path><path d="M238.55,329.22a58.62,58.62,0,0,1,0,11,58.62,58.62,0,0,1,0-11Z" style="fill:#263238"></path><path d="M253.17,329.22a58.62,58.62,0,0,1,0,11,58.62,58.62,0,0,1,0-11Z" style="fill:#263238"></path><path d="M267.78,329.22a58.62,58.62,0,0,1,0,11,58.62,58.62,0,0,1,0-11Z" style="fill:#263238"></path><path d="M148.37,305.44a57.15,57.15,0,0,1,0,10.89,57.15,57.15,0,0,1,0-10.89Z" style="fill:#263238"></path><path d="M165.47,305a58.62,58.62,0,0,1,0,11,58.62,58.62,0,0,1,0-11Z" style="fill:#263238"></path><path d="M180.08,305a58.62,58.62,0,0,1,0,11,58.62,58.62,0,0,1,0-11Z" style="fill:#263238"></path><path d="M194.7,305a58.62,58.62,0,0,1,0,11,58.62,58.62,0,0,1,0-11Z" style="fill:#263238"></path><path d="M209.32,305a58.62,58.62,0,0,1,0,11,58.62,58.62,0,0,1,0-11Z" style="fill:#263238"></path><path d="M223.93,305a58.62,58.62,0,0,1,0,11,58.62,58.62,0,0,1,0-11Z" style="fill:#263238"></path><path d="M238.55,305a58.62,58.62,0,0,1,0,11,58.62,58.62,0,0,1,0-11Z" style="fill:#263238"></path><path d="M253.17,305a58.62,58.62,0,0,1,0,11,58.62,58.62,0,0,1,0-11Z" style="fill:#263238"></path><path d="M267.78,305a58.62,58.62,0,0,1,0,11,58.62,58.62,0,0,1,0-11Z" style="fill:#263238"></path><rect x="206.78" y="289.43" width="25.1" height="7.77" style="fill:#FF8C43"></rect><circle cx="187.12" cy="275.22" r="1.86" style="fill:#263238"></circle><path d="M257.46,295.15c0,.15-14.69.26-32.8.26s-32.81-.11-32.81-.26,14.69-.26,32.81-.26S257.46,295,257.46,295.15Z" style="fill:#263238"></path><rect x="307.4" y="44.99" width="1.9" height="41.49" style="fill:#e0e0e0"></rect><rect x="305.91" y="74.13" width="4.8" height="11.66" style="fill:#e0e0e0"></rect><path d="M309.55,61.53H307.2a.4.4,0,0,1-.4-.4h0a.4.4,0,0,1,.4-.4h2.35a.4.4,0,0,1,.4.4h0A.4.4,0,0,1,309.55,61.53Z" style="fill:#e0e0e0"></path><path d="M309.55,68.3H307.2a.39.39,0,0,1-.4-.39h0a.4.4,0,0,1,.4-.4h2.35a.4.4,0,0,1,.4.4h0A.39.39,0,0,1,309.55,68.3Z" style="fill:#e0e0e0"></path><path d="M309.55,69.6H307.2a.39.39,0,0,1-.4-.39h0a.4.4,0,0,1,.4-.4h2.35a.4.4,0,0,1,.4.4h0A.39.39,0,0,1,309.55,69.6Z" style="fill:#e0e0e0"></path><rect x="319.16" y="21.1" width="1.9" height="41.49" style="fill:#e0e0e0"></rect><rect x="317.67" y="50.24" width="4.8" height="11.66" style="fill:#e0e0e0"></rect><path d="M321.32,37.64H319a.4.4,0,0,1-.4-.4h0a.4.4,0,0,1,.4-.4h2.36a.4.4,0,0,1,.4.4h0A.4.4,0,0,1,321.32,37.64Z" style="fill:#e0e0e0"></path><path d="M321.32,44.41H319a.39.39,0,0,1-.4-.39h0a.4.4,0,0,1,.4-.4h2.36a.4.4,0,0,1,.4.4h0A.39.39,0,0,1,321.32,44.41Z" style="fill:#e0e0e0"></path><path d="M321.32,45.71H319a.39.39,0,0,1-.4-.39h0a.4.4,0,0,1,.4-.4h2.36a.4.4,0,0,1,.4.4h0A.39.39,0,0,1,321.32,45.71Z" style="fill:#e0e0e0"></path><rect x="314.87" y="61.26" width="10.25" height="24.8" style="fill:#FF8C43"></rect><polygon points="325.12 61.26 314.87 69.21 314.87 75.84 325.12 67.91 325.12 61.26" style="fill:#fff"></polygon><polygon points="325.12 76.37 314.87 84.31 314.87 90.94 325.12 83.02 325.12 76.37" style="fill:#fff"></polygon><polygon points="298.1 97.84 301.44 85.78 335.54 85.78 339.35 97.84 298.1 97.84" style="fill:#e0e0e0"></polygon><polygon points="287.21 165.24 278.18 97.52 361.37 97.52 351.04 165.24 287.21 165.24" style="fill:#FF8C43"></polygon><polygon points="280.9 117.93 294.46 117.93 295.06 154.43 285.77 154.43 280.9 117.93" style="fill:#455a64"></polygon><polygon points="358.25 117.93 343.74 117.93 343.14 154.43 352.69 154.43 358.25 117.93" style="fill:#455a64"></polygon><rect x="296.3" y="165.24" width="47.89" height="252.21" style="fill:#FF8C43"></rect><rect x="286.53" y="227.53" width="66.53" height="34.8" style="fill:#FF8C43"></rect><rect x="286.53" y="232.18" width="2.83" height="25.26" style="fill:#455a64"></rect><rect x="292.01" y="232.18" width="9.38" height="25.26" style="fill:#455a64"></rect><rect x="338.13" y="232.18" width="9.38" height="25.26" style="fill:#455a64"></rect><rect x="350.01" y="232.18" width="3.05" height="25.26" style="fill:#455a64"></rect><rect x="304.23" y="232.18" width="13.65" height="25.26" style="fill:#455a64"></rect><rect x="321.13" y="232.18" width="13.65" height="25.26" style="fill:#455a64"></rect><rect x="297.41" y="117.93" width="19.66" height="36.5" style="fill:#455a64"></rect><rect x="320.24" y="117.93" width="20.38" height="36.5" style="fill:#455a64"></rect><polygon points="361.38 97.52 360.52 97.52 360.52 91.15 279.1 91.15 279.1 97.52 278.24 97.52 278.24 90.29 361.38 90.29 361.38 97.52" style="fill:#FF8C43"></polygon><rect x="283.38" y="90.72" width="0.86" height="7.08" style="fill:#FF8C43"></rect><rect x="289.5" y="90.72" width="0.86" height="7.08" style="fill:#FF8C43"></rect><rect x="295.63" y="90.72" width="0.86" height="7.08" style="fill:#FF8C43"></rect><rect x="301.76" y="90.72" width="0.86" height="7.08" style="fill:#FF8C43"></rect><rect x="307.88" y="90.72" width="0.86" height="7.08" style="fill:#FF8C43"></rect><rect x="314.01" y="90.72" width="0.86" height="7.08" style="fill:#FF8C43"></rect><rect x="320.14" y="90.72" width="0.86" height="7.08" style="fill:#FF8C43"></rect><rect x="326.27" y="90.72" width="0.86" height="7.08" style="fill:#FF8C43"></rect><rect x="332.39" y="90.72" width="0.86" height="7.08" style="fill:#FF8C43"></rect><rect x="338.52" y="90.72" width="0.86" height="7.08" style="fill:#FF8C43"></rect><rect x="344.65" y="90.72" width="0.86" height="7.08" style="fill:#FF8C43"></rect><rect x="350.77" y="90.72" width="0.86" height="7.08" style="fill:#FF8C43"></rect><rect x="356.9" y="90.72" width="0.86" height="7.08" style="fill:#FF8C43"></rect><polygon points="297.41 154.43 299.64 154.43 299.64 119.96 317.07 119.96 317.07 117.93 297.41 117.93 297.41 154.43" style="opacity:0.30000000000000004"></polygon><polygon points="320.26 154.43 322.49 154.43 322.49 119.96 340.62 119.96 340.62 117.93 320.26 117.93 320.26 154.43" style="opacity:0.30000000000000004"></polygon><polygon points="343.14 154.43 345.66 154.43 345.92 119.96 357.94 119.96 358.25 117.93 343.69 117.93 343.14 154.43" style="opacity:0.30000000000000004"></polygon><path d="M281.22,120.36H294.5v-2.43H280.9Z" style="opacity:0.30000000000000004"></path><path d="M310.94,133.54a23.17,23.17,0,0,1-2.59,4.1,23.58,23.58,0,0,1-3,3.81,22.61,22.61,0,0,1,2.58-4.11A22.34,22.34,0,0,1,310.94,133.54Z" style="fill:#fff"></path><path d="M333.49,129.63a22.48,22.48,0,0,1-2.59,4.1,22.37,22.37,0,0,1-3,3.81,22.74,22.74,0,0,1,2.59-4.11A22.52,22.52,0,0,1,333.49,129.63Z" style="fill:#fff"></path><path d="M332.86,135.05a22.48,22.48,0,0,1-2.59,4.1,22.37,22.37,0,0,1-3,3.81,22.74,22.74,0,0,1,2.59-4.11A23.12,23.12,0,0,1,332.86,135.05Z" style="fill:#fff"></path><path d="M353.67,227.51c0,.15-15.08.26-33.68.26s-33.68-.11-33.68-.26,15.08-.26,33.68-.26S353.67,227.37,353.67,227.51Z" style="fill:#263238"></path><path d="M353.67,262.33c0,.15-15.08.26-33.68.26s-33.68-.11-33.68-.26,15.08-.26,33.68-.26S353.67,262.19,353.67,262.33Z" style="fill:#263238"></path><path d="M314.64,241a31.74,31.74,0,0,1-3.06,4.9,32.61,32.61,0,0,1-3.5,4.61,65.51,65.51,0,0,1,6.56-9.51Z" style="fill:#263238"></path><path d="M332.07,240.61a30.19,30.19,0,0,1-3.6,5.1,31,31,0,0,1-4.2,4.63,47.67,47.67,0,0,1,3.79-5A46.56,46.56,0,0,1,332.07,240.61Z" style="fill:#263238"></path><path d="M329.51,241c.11.09-.35.88-1,1.78s-1.34,1.55-1.45,1.46.35-.88,1-1.78S329.4,240.86,329.51,241Z" style="fill:#263238"></path><rect x="296.3" y="262.33" width="47.89" height="4.72" style="opacity:0.30000000000000004"></rect><path d="M351.37,165.24c0,.15-14.39.26-32.14.26s-32.14-.11-32.14-.26,14.38-.26,32.14-.26S351.37,165.1,351.37,165.24Z" style="fill:#263238"></path><path d="M361.65,97.52c0,.14-18.73.26-41.84.26S278,97.66,278,97.52s18.73-.26,41.85-.26S361.65,97.37,361.65,97.52Z" style="fill:#263238"></path><path d="M296.24,417.45c-.14,0-.26-34.16-.26-76.3s.12-76.31.26-76.31.26,34.16.26,76.31S296.39,417.45,296.24,417.45Z" style="fill:#263238"></path><rect x="296.24" y="181.02" width="47.95" height="9.31" style="fill:#fff"></rect><rect x="296.24" y="194.85" width="47.95" height="9.31" style="fill:#fff"></rect><path d="M296.3,220.81c-.14,0-.26-12-.26-26.86s.12-26.87.26-26.87.26,12,.26,26.87S296.45,220.81,296.3,220.81Z" style="fill:#263238"></path><path d="M344.19,220.81c-.15,0-.26-12-.26-26.86s.11-26.87.26-26.87.26,12,.26,26.87S344.33,220.81,344.19,220.81Z" style="fill:#263238"></path><rect x="304.29" y="406.71" width="8.11" height="10.99" style="fill:#455a64"></rect><g style="opacity:0.30000000000000004"><path d="M344.07,290.51c0,.15-10.53.26-23.52.26s-23.52-.11-23.52-.26,10.53-.26,23.52-.26S344.07,290.37,344.07,290.51Z"></path></g><g style="opacity:0.30000000000000004"><path d="M344.07,327.14c0,.14-10.53.26-23.52.26s-23.52-.12-23.52-.26,10.53-.26,23.52-.26S344.07,327,344.07,327.14Z"></path></g><g style="opacity:0.30000000000000004"><path d="M344.07,363.76c0,.15-10.53.26-23.52.26s-23.52-.11-23.52-.26,10.53-.26,23.52-.26S344.07,363.62,344.07,363.76Z"></path></g><g style="opacity:0.30000000000000004"><path d="M344.07,400.39c0,.14-10.53.26-23.52.26s-23.52-.12-23.52-.26,10.53-.26,23.52-.26S344.07,400.24,344.07,400.39Z"></path></g><g style="opacity:0.30000000000000004"><path d="M321.13,262.33c.15,0,.26,34.66.26,77.4s-.11,77.41-.26,77.41-.26-34.65-.26-77.41S321,262.33,321.13,262.33Z"></path></g><g style="opacity:0.30000000000000004"><path d="M305.89,262.33c.14,0,.26,30.91.26,69s-.12,69-.26,69-.26-30.9-.26-69S305.74,262.33,305.89,262.33Z"></path></g><g style="opacity:0.30000000000000004"><path d="M336.19,264c.14,0,.26,34.29.26,76.59s-.12,76.59-.26,76.59-.26-34.29-.26-76.59S336,264,336.19,264Z"></path></g><path d="M344.21,338.45c-.15,0-.26-16.92-.26-37.78s.11-37.78.26-37.78.26,16.91.26,37.78S344.35,338.45,344.21,338.45Z" style="fill:#263238"></path></g><g id="freepik--Sun--inject-44"><circle cx="214.74" cy="97.84" r="24.26" style="fill:#FF8C43"></circle><g style="opacity:0.9"><circle cx="214.74" cy="97.84" r="24.26" style="fill:#fff"></circle></g><circle cx="214.74" cy="97.84" r="21.64" transform="translate(-6.29 180.51) rotate(-45)" style="fill:#FF8C43"></circle><g style="opacity:0.6000000000000001"><circle cx="214.74" cy="97.84" r="21.64" transform="translate(-6.29 180.51) rotate(-45)" style="fill:#fff"></circle></g><circle cx="214.74" cy="97.84" r="18.01" transform="translate(-21.13 90.71) rotate(-22.76)" style="fill:#FF8C43"></circle><g style="opacity:0.30000000000000004"><circle cx="214.74" cy="97.84" r="18.01" transform="translate(-21.13 90.71) rotate(-22.76)" style="fill:#fff"></circle></g><circle cx="214.74" cy="97.84" r="14.42" transform="translate(83.91 294.24) rotate(-80.82)" style="fill:#FF8C43"></circle></g><g id="freepik--Airplane--inject-44"><rect x="514.07" y="229.79" width="1.66" height="8.71" transform="translate(-37.13 110.82) rotate(-11.86)" style="fill:#e0e0e0"></rect><path d="M520.09,237.89a4.31,4.31,0,1,1-5.1-3.32A4.3,4.3,0,0,1,520.09,237.89Z" style="fill:#263238"></path><path d="M517.9,238.35a2.07,2.07,0,1,1-2.45-1.6A2.08,2.08,0,0,1,517.9,238.35Z" style="fill:#455a64"></path><rect x="525.27" y="227.44" width="1.66" height="8.71" transform="translate(-36.41 113.07) rotate(-11.86)" style="fill:#e0e0e0"></rect><path d="M531.29,235.54a4.31,4.31,0,1,1-5.1-3.33A4.3,4.3,0,0,1,531.29,235.54Z" style="fill:#263238"></path><path d="M529.11,236a2.07,2.07,0,1,1-4.06.85,2.07,2.07,0,0,1,4.06-.85Z" style="fill:#455a64"></path><path d="M480.12,217.15c-31.2,1.23-47.18-13.09-65.3-24.39a22.49,22.49,0,0,0-5-2.38,34.52,34.52,0,0,0-17.73-.94l-.67.14,26.06,39.76Z" style="fill:#FF8C43"></path><rect x="627.79" y="206.64" width="1.66" height="8.71" transform="translate(-29.94 133.69) rotate(-11.86)" style="fill:#e0e0e0"></rect><path d="M633.81,214.74a4.31,4.31,0,1,1-5.1-3.33A4.3,4.3,0,0,1,633.81,214.74Z" style="fill:#263238"></path><path d="M631.62,215.2a2.07,2.07,0,1,1-2.45-1.6A2.08,2.08,0,0,1,631.62,215.2Z" style="fill:#455a64"></path><rect x="638.99" y="204.29" width="1.66" height="8.71" transform="translate(-29.22 135.94) rotate(-11.86)" style="fill:#e0e0e0"></rect><path d="M645,212.39a4.31,4.31,0,1,1-5.1-3.33A4.3,4.3,0,0,1,645,212.39Z" style="fill:#263238"></path><path d="M642.82,212.85a2.07,2.07,0,1,1-2.45-1.6A2.06,2.06,0,0,1,642.82,212.85Z" style="fill:#455a64"></path><path d="M406.86,234.12l0,.09a.25.25,0,0,1,0,.07l.05.09.07.08a1,1,0,0,0,.2.2l.11.09a.15.15,0,0,0,.06,0l.1.07a5,5,0,0,0,.7.37q.31.14.72.27a21.43,21.43,0,0,0,2.49.64l.12,0s15.6,1.25,34,2.28c1.83.1,3.68.21,5.56.3,2.6.14,5.24.27,7.87.39,3,.14,6,.26,8.94.36,7.31.25,14.25.38,20.05.3,0,0,1.58,0,4.25-.12,1.19-.06,2.59-.15,4.16-.27,3-.24,6.53-.62,10.46-1.24l1.12-.18,1.73-.3.58-.11,1-.17.82-.17c.81-.16,1.64-.33,2.47-.52l5.83-1.14,1.33-.26,56.61-11.12,7.86-1.54,55.78-11H642l.12,0,.15,0,.11,0,.26-.06.19-.05c5-1.22,30.59-7.73,38.28-13.77a10.14,10.14,0,0,0,3.3-3.67,4,4,0,0,0,.2-.58,3.58,3.58,0,0,0,.1-.8,2.68,2.68,0,0,0-.08-.68.65.65,0,0,0,0-.13l0-.13a3.38,3.38,0,0,0-.51-.92,5.49,5.49,0,0,0-1.31-1.18,10.86,10.86,0,0,0-2.32-1.16l-4.89-1.81-5.86-3.23-.39-.25a19.9,19.9,0,0,0-4.14-1.87c-4.07-1.38-10.88-2.63-20.48-.88h-.06L510.69,207.28l-.31.05-.1,0-.11,0-.37.07-.49.08-.21,0-.11,0-.23,0-.13,0-.24,0-.14,0-.27.05-.15,0-.28,0c-4.56.85-14.06,2.72-27.83,5.82-4.23,1-8.88,2-13.9,3.22l-1,.24-.95.23c-14.77,3.55-32.71,8.13-53.33,13.92a12.12,12.12,0,0,0-2.85,1.39l-.23.18-.11.1-.22.22-.09.13a.55.55,0,0,0-.09.14.42.42,0,0,0-.06.14h0l0,.13A.78.78,0,0,0,406.86,234.12Z" style="fill:#e0e0e0"></path><path d="M618.12,197.3a1,1,0,0,0,1.15.74h0a1,1,0,0,0,.75-1.14l-.29-1.39a1,1,0,0,0-1.15-.73h0a1,1,0,0,0-.75,1.13Z" style="fill:#455a64"></path><path d="M611.12,198.77a1,1,0,0,0,1.15.74h0a1,1,0,0,0,.75-1.14l-.29-1.39a1,1,0,0,0-1.14-.73h0a1,1,0,0,0-.76,1.13Z" style="fill:#455a64"></path><path d="M614.62,198a1,1,0,0,0,1.15.73h0a1,1,0,0,0,.75-1.13l-.29-1.39a1,1,0,0,0-1.14-.74h0a1,1,0,0,0-.76,1.14Z" style="fill:#455a64"></path><path d="M628.62,195.1a1,1,0,0,0,1.15.73h0a1,1,0,0,0,.75-1.13l-.29-1.39a1,1,0,0,0-1.15-.74h0a1,1,0,0,0-.75,1.14Z" style="fill:#455a64"></path><path d="M621.62,196.57a1,1,0,0,0,1.15.73h0a1,1,0,0,0,.75-1.13l-.29-1.39a1,1,0,0,0-1.15-.74h0a1,1,0,0,0-.75,1.14Z" style="fill:#455a64"></path><path d="M625.12,195.83a1,1,0,0,0,1.15.74h0a1,1,0,0,0,.75-1.14l-.29-1.39a1,1,0,0,0-1.15-.73h0a1,1,0,0,0-.75,1.13Z" style="fill:#455a64"></path><path d="M597.12,201.71a1,1,0,0,0,1.15.74h0a1,1,0,0,0,.75-1.14l-.29-1.39a1,1,0,0,0-1.14-.73h0a1,1,0,0,0-.76,1.13Z" style="fill:#455a64"></path><path d="M590.12,203.18a1,1,0,0,0,1.15.73h0a1,1,0,0,0,.75-1.13l-.29-1.39a1,1,0,0,0-1.14-.73h0a1,1,0,0,0-.76,1.13Z" style="fill:#455a64"></path><path d="M593.62,202.45a1,1,0,0,0,1.15.73h0a1,1,0,0,0,.75-1.13l-.29-1.39a1,1,0,0,0-1.14-.74h0a1,1,0,0,0-.76,1.13Z" style="fill:#455a64"></path><path d="M607.62,199.51a1,1,0,0,0,1.15.73h0a1,1,0,0,0,.75-1.13l-.29-1.39a1,1,0,0,0-1.14-.74h0a1,1,0,0,0-.76,1.13Z" style="fill:#455a64"></path><path d="M600.62,201a1,1,0,0,0,1.15.73h0a1,1,0,0,0,.75-1.13l-.29-1.39a1,1,0,0,0-1.14-.74h0a1,1,0,0,0-.76,1.13Z" style="fill:#455a64"></path><path d="M604.12,200.24a1,1,0,0,0,1.15.74h0a1,1,0,0,0,.75-1.14l-.29-1.39a1,1,0,0,0-1.14-.73h0a1,1,0,0,0-.76,1.13Z" style="fill:#455a64"></path><path d="M576.13,206.12a1,1,0,0,0,1.14.73h0a1,1,0,0,0,.75-1.13l-.29-1.39a1,1,0,0,0-1.14-.73h0a1,1,0,0,0-.76,1.13Z" style="fill:#455a64"></path><path d="M569.13,207.59a1,1,0,0,0,1.14.73h0a1,1,0,0,0,.76-1.13l-.3-1.39a1,1,0,0,0-1.14-.73h0a1,1,0,0,0-.76,1.13Z" style="fill:#455a64"></path><path d="M572.63,206.85a1,1,0,0,0,1.14.74h0a1,1,0,0,0,.75-1.13l-.29-1.4a1,1,0,0,0-1.14-.73h0a1,1,0,0,0-.76,1.13Z" style="fill:#455a64"></path><path d="M586.63,203.92a1,1,0,0,0,1.14.73h0a1,1,0,0,0,.75-1.13l-.29-1.39a1,1,0,0,0-1.14-.74h0a1,1,0,0,0-.76,1.13Z" style="fill:#455a64"></path><path d="M579.63,205.38a1,1,0,0,0,1.14.74h0a1,1,0,0,0,.75-1.13l-.29-1.39a1,1,0,0,0-1.14-.74h0a1,1,0,0,0-.76,1.13Z" style="fill:#455a64"></path><path d="M583.13,204.65a1,1,0,0,0,1.14.73h0a1,1,0,0,0,.75-1.13l-.29-1.39a1,1,0,0,0-1.14-.73h0a1,1,0,0,0-.76,1.13Z" style="fill:#455a64"></path><path d="M555.13,210.53a1,1,0,0,0,1.14.73h0a1,1,0,0,0,.76-1.13l-.3-1.39a1,1,0,0,0-1.14-.73h0a1,1,0,0,0-.76,1.13Z" style="fill:#455a64"></path><path d="M548.13,212a1,1,0,0,0,1.14.73h0a1,1,0,0,0,.76-1.13l-.3-1.39a1,1,0,0,0-1.14-.73h0a1,1,0,0,0-.75,1.13Z" style="fill:#455a64"></path><path d="M551.63,211.26a1,1,0,0,0,1.14.74h0a1,1,0,0,0,.76-1.13l-.3-1.4a1,1,0,0,0-1.14-.73h0a1,1,0,0,0-.75,1.13Z" style="fill:#455a64"></path><path d="M565.63,208.32a1,1,0,0,0,1.14.74h0a1,1,0,0,0,.75-1.13l-.29-1.4a1,1,0,0,0-1.14-.73h0a1,1,0,0,0-.75,1.13Z" style="fill:#455a64"></path><path d="M558.63,209.79a1,1,0,0,0,1.14.74h0a1,1,0,0,0,.76-1.13l-.3-1.4a1,1,0,0,0-1.14-.73h0a1,1,0,0,0-.75,1.13Z" style="fill:#455a64"></path><path d="M562.13,209.06a1,1,0,0,0,1.14.73h0a1,1,0,0,0,.75-1.13l-.29-1.39a1,1,0,0,0-1.14-.73h0a1,1,0,0,0-.76,1.13Z" style="fill:#455a64"></path><path d="M635.44,193.67a1,1,0,0,0,1.14.73h0a1,1,0,0,0,.76-1.13l-.29-1.39a1,1,0,0,0-1.15-.74h0a1,1,0,0,0-.75,1.13Z" style="fill:#455a64"></path><path d="M631.94,194.4a1,1,0,0,0,1.15.73h0a1,1,0,0,0,.75-1.13l-.29-1.39a1,1,0,0,0-1.15-.73h0a1,1,0,0,0-.75,1.13Z" style="fill:#455a64"></path><path d="M544.63,212.73a1,1,0,0,0,1.14.74h0a1,1,0,0,0,.76-1.13l-.3-1.4a1,1,0,0,0-1.14-.73h0a1,1,0,0,0-.75,1.13Z" style="fill:#455a64"></path><path d="M537.63,214.2a1,1,0,0,0,1.14.74h0a1,1,0,0,0,.76-1.13l-.3-1.4a1,1,0,0,0-1.14-.73h0a1,1,0,0,0-.75,1.13Z" style="fill:#455a64"></path><path d="M541.13,213.47a1,1,0,0,0,1.14.73h0a1,1,0,0,0,.76-1.13l-.29-1.39a1,1,0,0,0-1.15-.73h0a1,1,0,0,0-.75,1.13Z" style="fill:#455a64"></path><path d="M513,219.09a1,1,0,0,0,1.14.73h0a1,1,0,0,0,.75-1.13l-.29-1.39a1,1,0,0,0-1.14-.73h0a1,1,0,0,0-.76,1.13Z" style="fill:#455a64"></path><path d="M506,220.56a1,1,0,0,0,1.14.73h0a1,1,0,0,0,.76-1.13l-.3-1.39a1,1,0,0,0-1.14-.73h0a1,1,0,0,0-.76,1.13Z" style="fill:#455a64"></path><path d="M509.5,219.82a1,1,0,0,0,1.14.74h0a1,1,0,0,0,.76-1.14l-.3-1.39a1,1,0,0,0-1.14-.73h0a1,1,0,0,0-.76,1.13Z" style="fill:#455a64"></path><path d="M523.5,216.88a1,1,0,0,0,1.14.74h0a1,1,0,0,0,.75-1.14l-.29-1.39a1,1,0,0,0-1.14-.73h0a1,1,0,0,0-.76,1.13Z" style="fill:#455a64"></path><path d="M516.5,218.35a1,1,0,0,0,1.14.74h0a1,1,0,0,0,.75-1.14l-.29-1.39a1,1,0,0,0-1.14-.73h0a1,1,0,0,0-.76,1.13Z" style="fill:#455a64"></path><path d="M520,217.62a1,1,0,0,0,1.14.73h0a1,1,0,0,0,.75-1.13l-.29-1.39a1,1,0,0,0-1.14-.73h0a1,1,0,0,0-.76,1.13Z" style="fill:#455a64"></path><path d="M492,223.5a1,1,0,0,0,1.14.73h0a1,1,0,0,0,.76-1.13l-.3-1.39a1,1,0,0,0-1.14-.74h0a1,1,0,0,0-.75,1.14Z" style="fill:#455a64"></path><path d="M488.5,224.23a1,1,0,0,0,1.14.74h0a1,1,0,0,0,.76-1.14l-.3-1.39a1,1,0,0,0-1.14-.73h0a1,1,0,0,0-.75,1.13Z" style="fill:#455a64"></path><path d="M502.5,221.29a1,1,0,0,0,1.14.74h0a1,1,0,0,0,.75-1.14l-.29-1.39a1,1,0,0,0-1.14-.73h0a1,1,0,0,0-.76,1.13Z" style="fill:#455a64"></path><path d="M495.5,222.76a1,1,0,0,0,1.14.74h0a1,1,0,0,0,.76-1.14l-.3-1.39a1,1,0,0,0-1.14-.73h0a1,1,0,0,0-.76,1.13Z" style="fill:#455a64"></path><path d="M499,222a1,1,0,0,0,1.14.73h0a1,1,0,0,0,.76-1.13l-.3-1.39a1,1,0,0,0-1.14-.73h0a1,1,0,0,0-.75,1.13Z" style="fill:#455a64"></path><path d="M485.13,224.94a1,1,0,0,0,1.14.73h0a1,1,0,0,0,.76-1.13l-.3-1.39a1,1,0,0,0-1.14-.73h0a1,1,0,0,0-.75,1.13Z" style="fill:#455a64"></path><path d="M684.56,191.84l0-.13c-7.23,3.25-17.9,7.7-25.65,9.49L471.42,239.6c7.31.26,10.73.27,16.53.19,0,0,1.58,0,4.25-.12,1.19-.06,2.59-.15,4.16-.27,3-.24,6.53-.62,10.46-1.24l1.12-.18,1.73-.3.58-.11,1-.17.82-.17c.81-.16,1.64-.33,2.47-.52l5.83-1.14,1.33-.26,56.61-11.12,7.86-1.54,55.78-11H642l.12,0,.15,0,.11,0,.26-.06.19-.05c5-1.22,30.59-7.73,38.28-13.77a10.14,10.14,0,0,0,3.3-3.67,4,4,0,0,0,.2-.58,3.58,3.58,0,0,0,.1-.8,2.68,2.68,0,0,0-.08-.68A.65.65,0,0,0,684.56,191.84Z" style="fill:#FF8C43"></path><path d="M586.06,216.12s-2.88-5.34-27.14-3.75c-14.14.93-109.07,10.4-112.65,14.85s71,3.73,71,3.73Z" style="fill:#FF8C43"></path><path d="M441,228.33h0l-23,4.84-27.56-1.76,15.86-3.33,31.38-2.25A3.18,3.18,0,0,1,441,228.33Z" style="fill:#FF8C43"></path><path d="M441,228.33s-.06-.23-.26-.63a3.07,3.07,0,0,0-1.32-1.39,3,3,0,0,0-1.35-.38c-.51,0-1.1.08-1.72.11l-4.27.35-25.79,1.94h0L391,231.55l-.53.11,0-.51L418,233H418l16.74-3.42,4.68-.92,1.23-.23a2.3,2.3,0,0,1,.43-.06,1.42,1.42,0,0,1-.41.13l-1.22.28-4.66,1-16.7,3.6H418l-27.55-1.72-1.92-.12,1.88-.4.53-.11,15.33-3.2h0l25.81-1.75,4.27-.28c.63,0,1.19-.1,1.75-.07a3.21,3.21,0,0,1,1.42.43,3.13,3.13,0,0,1,1.32,1.5A2.31,2.31,0,0,1,441,228.33Z" style="fill:#263238"></path><path d="M598.69,213.53c0,.14-27.67,5.91-61.86,12.88s-62,12.52-62,12.38,27.67-5.91,61.87-12.89S598.67,213.38,598.69,213.53Z" style="fill:#263238"></path><path d="M556.5,214.41s-26.23,5.84-24.7,14.47c1.33,7.53,12.44,5.91,28.29,2.31Z" style="fill:#e0e0e0"></path><path d="M559.29,222.62c1,4.65,1.39,8.49.93,8.59s-1.62-3.59-2.6-8.24-1.39-8.5-.93-8.6S558.31,218,559.29,222.62Z" style="fill:#263238"></path><path d="M556.79,231.93a7.11,7.11,0,0,1-1.14-2.22,40.52,40.52,0,0,1-1.74-5.77,31.75,31.75,0,0,1-.87-6,11.45,11.45,0,0,1,.09-1.84c.1-.43.17-.66.21-.65s-.09.94.06,2.46a47.8,47.8,0,0,0,1,5.88c.53,2.27,1.1,4.3,1.58,5.75S556.86,231.89,556.79,231.93Z" style="fill:#263238"></path><path d="M545.91,233.88c-8,1-13.23,0-14.11-5-.75-4.23,4.66-7.58,10.89-10.11,0,0-.83,2.44.34,7.82C544.42,233,545.91,233.88,545.91,233.88Z" style="fill:#FF8C43"></path><path d="M556.5,214.41s0,.09.09.28.12.52.21.86c.19.83.44,1.95.77,3.36.67,3,1.6,7.19,2.73,12.24l0,.21-.21,0c-3.06.71-6.46,1.48-10.13,2.12-1.84.32-3.74.61-5.71.79a28.73,28.73,0,0,1-6.08,0,10.18,10.18,0,0,1-3.91-1.24,5.61,5.61,0,0,1-2.49-3.12,5.82,5.82,0,0,1-.32-1.95,5,5,0,0,1,.49-1.89,9.06,9.06,0,0,1,2.33-2.85,26.16,26.16,0,0,1,5.71-3.53c1.9-.9,3.72-1.62,5.4-2.22,3.35-1.2,6.13-2,8.06-2.45,1-.24,1.72-.41,2.23-.52a4.73,4.73,0,0,1,.79-.13,4.84,4.84,0,0,1-.76.23l-2.21.62c-1.9.55-4.66,1.36-8,2.6-1.66.62-3.46,1.35-5.33,2.26a26.15,26.15,0,0,0-5.59,3.5,8.83,8.83,0,0,0-2.19,2.7A4.55,4.55,0,0,0,532,228c0,.29,0,.59.07.88a6.88,6.88,0,0,0,.24.89,5.1,5.1,0,0,0,2.27,2.84,9.66,9.66,0,0,0,3.71,1.16,27.62,27.62,0,0,0,6,0c2-.17,3.85-.45,5.67-.76,3.66-.63,7.06-1.37,10.13-2l-.16.25c-1-5-1.88-9.18-2.48-12.15-.29-1.44-.51-2.59-.68-3.43l-.17-.92A3.06,3.06,0,0,1,556.5,214.41Z" style="fill:#263238"></path><path d="M645.87,199.17a6.78,6.78,0,0,0,1.1-.58,3.16,3.16,0,0,0,1.28-2.86c-.26-1.38-.68-3.1-1.07-5a4.41,4.41,0,0,0-.42-1.33,3,3,0,0,0-1-1,3,3,0,0,0-1.37-.5,4.72,4.72,0,0,0-1.54.18,3,3,0,0,0-2.18,1.85,3,3,0,0,0-.19,1.39c.06.45.19,1,.28,1.43.18.94.36,1.83.53,2.67a8.47,8.47,0,0,0,.59,2.24,3.21,3.21,0,0,0,2.7,1.62c.78,0,1.24-.16,1.24-.1s-.1.06-.31.12a4.1,4.1,0,0,1-.93.18,3.37,3.37,0,0,1-3-1.64,4.06,4.06,0,0,1-.42-1.12c-.09-.39-.18-.79-.27-1.21-.18-.84-.38-1.73-.58-2.66-.1-.48-.22-.93-.3-1.47a3.63,3.63,0,0,1,.2-1.63,3.49,3.49,0,0,1,2.55-2.18,5.32,5.32,0,0,1,1.71-.19,3.5,3.5,0,0,1,1.6.6,3.57,3.57,0,0,1,1.1,1.22,5.05,5.05,0,0,1,.45,1.47c.37,1.9.74,3.56,1,5a3.34,3.34,0,0,1-1.54,3.06,3,3,0,0,1-.88.38C646,199.18,645.87,199.19,645.87,199.17Z" style="fill:#e0e0e0"></path><path d="M669.24,183.16l-6.16,1.29a4,4,0,0,0-2.48,1.69l-2.9,4.44,17.95-4Z" style="fill:#455a64"></path><rect x="663.84" y="183.94" width="0.93" height="5.3" transform="translate(-24.17 140.49) rotate(-11.86)" style="fill:#e0e0e0"></rect></g><g id="freepik--Lines--inject-44"><path d="M433.74,250.92c0,.14-9.27,2.41-20.79,5.08s-20.87,4.71-20.91,4.57,9.28-2.41,20.8-5.08S433.71,250.78,433.74,250.92Z" style="fill:#263238"></path><path d="M443.65,252.67c0,.14-6.15,1.69-13.8,3.47s-13.88,3.09-13.91,2.95,6.14-1.69,13.79-3.46S443.62,252.53,443.65,252.67Z" style="fill:#263238"></path></g></svg>
