<?xml version="1.0" standalone="no"?>
<svg viewBox="0 0 200 200" xmlns="http://www.w3.org/2000/svg">
  <path fill="#FF9D5F" d="M27.9,-41C36.4,-38,43.7,-30.6,46.4,-22C49,-13.3,47.1,-3.4,43.6,4.8C40.1,13,35,19.5,29.8,26.3C24.6,33.2,19.3,40.5,11,47.4C2.7,54.4,-8.6,61,-17.8,59C-27.1,57.1,-34.3,46.5,-40.5,36.6C-46.7,26.7,-51.9,17.5,-58.9,5.1C-65.9,-7.2,-74.7,-22.7,-71.4,-33.8C-68.1,-44.9,-52.8,-51.6,-38.9,-52.1C-25,-52.6,-12.5,-46.9,-1.4,-44.7C9.7,-42.5,19.4,-44,27.9,-41Z" transform="translate(100 100)" />
</svg>
